<svg xmlns="http://www.w3.org/2000/svg" width="1040" height="820">
<rect width="100%" height="100%" fill="white"/>
<text x="15" y="25">C01 FIT / S04_3d_unicyclic_small_C01__c1_mixed / all selected observations</text>
<text x="15" y="48">Fixed final score distributions: blue positive, orange negative; each class normalized separately.</text>
<text x="15" y="70">No threshold selection. Member decision remains 0.5; events remain original 3-class argmax.</text>
<text x="35" y="100">gt_axes / members</text>
<rect x="35" y="120" width="450" height="150" fill="none" stroke="#bbb"/>
<rect x="35.000" y="270.000" width="10" height="0.000" fill="#2166ac"/>
<rect x="57.500" y="270.000" width="10" height="0.000" fill="#2166ac"/>
<rect x="80.000" y="270.000" width="10" height="0.000" fill="#2166ac"/>
<rect x="102.500" y="270.000" width="10" height="0.000" fill="#2166ac"/>
<rect x="125.000" y="270.000" width="10" height="0.000" fill="#2166ac"/>
<rect x="147.500" y="270.000" width="10" height="0.000" fill="#2166ac"/>
<rect x="170.000" y="270.000" width="10" height="0.000" fill="#2166ac"/>
<rect x="192.500" y="270.000" width="10" height="0.000" fill="#2166ac"/>
<rect x="215.000" y="270.000" width="10" height="0.000" fill="#2166ac"/>
<rect x="237.500" y="270.000" width="10" height="0.000" fill="#2166ac"/>
<rect x="260.000" y="270.000" width="10" height="0.000" fill="#2166ac"/>
<rect x="282.500" y="270.000" width="10" height="0.000" fill="#2166ac"/>
<rect x="305.000" y="270.000" width="10" height="0.000" fill="#2166ac"/>
<rect x="327.500" y="270.000" width="10" height="0.000" fill="#2166ac"/>
<rect x="350.000" y="270.000" width="10" height="0.000" fill="#2166ac"/>
<rect x="372.500" y="270.000" width="10" height="0.000" fill="#2166ac"/>
<rect x="395.000" y="220.830" width="10" height="49.170" fill="#2166ac"/>
<rect x="417.500" y="178.506" width="10" height="91.494" fill="#2166ac"/>
<rect x="440.000" y="260.664" width="10" height="9.336" fill="#2166ac"/>
<rect x="462.500" y="270.000" width="10" height="0.000" fill="#2166ac"/>
<rect x="45.000" y="190.173" width="10" height="79.827" fill="#d95f02"/>
<rect x="67.500" y="255.518" width="10" height="14.482" fill="#d95f02"/>
<rect x="90.000" y="263.474" width="10" height="6.526" fill="#d95f02"/>
<rect x="112.500" y="264.458" width="10" height="5.542" fill="#d95f02"/>
<rect x="135.000" y="266.871" width="10" height="3.129" fill="#d95f02"/>
<rect x="157.500" y="264.190" width="10" height="5.810" fill="#d95f02"/>
<rect x="180.000" y="266.335" width="10" height="3.665" fill="#d95f02"/>
<rect x="202.500" y="265.977" width="10" height="4.023" fill="#d95f02"/>
<rect x="225.000" y="264.905" width="10" height="5.095" fill="#d95f02"/>
<rect x="247.500" y="264.458" width="10" height="5.542" fill="#d95f02"/>
<rect x="270.000" y="265.530" width="10" height="4.470" fill="#d95f02"/>
<rect x="292.500" y="264.636" width="10" height="5.364" fill="#d95f02"/>
<rect x="315.000" y="265.709" width="10" height="4.291" fill="#d95f02"/>
<rect x="337.500" y="268.391" width="10" height="1.609" fill="#d95f02"/>
<rect x="360.000" y="269.374" width="10" height="0.626" fill="#d95f02"/>
<rect x="382.500" y="270.000" width="10" height="0.000" fill="#d95f02"/>
<rect x="405.000" y="270.000" width="10" height="0.000" fill="#d95f02"/>
<rect x="427.500" y="270.000" width="10" height="0.000" fill="#d95f02"/>
<rect x="450.000" y="270.000" width="10" height="0.000" fill="#d95f02"/>
<rect x="472.500" y="270.000" width="10" height="0.000" fill="#d95f02"/>
<text x="35" y="290">0</text>
<text x="255" y="290">0.5</text>
<text x="465" y="290">1.0</text>
<text x="35" y="312">positive=241; negative=1678</text>
<text x="545" y="100">gt_axes / junction</text>
<rect x="545" y="120" width="450" height="150" fill="none" stroke="#bbb"/>
<rect x="545.000" y="120.000" width="10" height="150.000" fill="#2166ac"/>
<rect x="567.500" y="270.000" width="10" height="0.000" fill="#2166ac"/>
<rect x="590.000" y="270.000" width="10" height="0.000" fill="#2166ac"/>
<rect x="612.500" y="270.000" width="10" height="0.000" fill="#2166ac"/>
<rect x="635.000" y="270.000" width="10" height="0.000" fill="#2166ac"/>
<rect x="657.500" y="270.000" width="10" height="0.000" fill="#2166ac"/>
<rect x="680.000" y="270.000" width="10" height="0.000" fill="#2166ac"/>
<rect x="702.500" y="270.000" width="10" height="0.000" fill="#2166ac"/>
<rect x="725.000" y="270.000" width="10" height="0.000" fill="#2166ac"/>
<rect x="747.500" y="270.000" width="10" height="0.000" fill="#2166ac"/>
<rect x="770.000" y="270.000" width="10" height="0.000" fill="#2166ac"/>
<rect x="792.500" y="270.000" width="10" height="0.000" fill="#2166ac"/>
<rect x="815.000" y="270.000" width="10" height="0.000" fill="#2166ac"/>
<rect x="837.500" y="270.000" width="10" height="0.000" fill="#2166ac"/>
<rect x="860.000" y="270.000" width="10" height="0.000" fill="#2166ac"/>
<rect x="882.500" y="270.000" width="10" height="0.000" fill="#2166ac"/>
<rect x="905.000" y="270.000" width="10" height="0.000" fill="#2166ac"/>
<rect x="927.500" y="270.000" width="10" height="0.000" fill="#2166ac"/>
<rect x="950.000" y="270.000" width="10" height="0.000" fill="#2166ac"/>
<rect x="972.500" y="270.000" width="10" height="0.000" fill="#2166ac"/>
<rect x="555.000" y="120.000" width="10" height="150.000" fill="#d95f02"/>
<rect x="577.500" y="270.000" width="10" height="0.000" fill="#d95f02"/>
<rect x="600.000" y="270.000" width="10" height="0.000" fill="#d95f02"/>
<rect x="622.500" y="270.000" width="10" height="0.000" fill="#d95f02"/>
<rect x="645.000" y="270.000" width="10" height="0.000" fill="#d95f02"/>
<rect x="667.500" y="270.000" width="10" height="0.000" fill="#d95f02"/>
<rect x="690.000" y="270.000" width="10" height="0.000" fill="#d95f02"/>
<rect x="712.500" y="270.000" width="10" height="0.000" fill="#d95f02"/>
<rect x="735.000" y="270.000" width="10" height="0.000" fill="#d95f02"/>
<rect x="757.500" y="270.000" width="10" height="0.000" fill="#d95f02"/>
<rect x="780.000" y="270.000" width="10" height="0.000" fill="#d95f02"/>
<rect x="802.500" y="270.000" width="10" height="0.000" fill="#d95f02"/>
<rect x="825.000" y="270.000" width="10" height="0.000" fill="#d95f02"/>
<rect x="847.500" y="270.000" width="10" height="0.000" fill="#d95f02"/>
<rect x="870.000" y="270.000" width="10" height="0.000" fill="#d95f02"/>
<rect x="892.500" y="270.000" width="10" height="0.000" fill="#d95f02"/>
<rect x="915.000" y="270.000" width="10" height="0.000" fill="#d95f02"/>
<rect x="937.500" y="270.000" width="10" height="0.000" fill="#d95f02"/>
<rect x="960.000" y="270.000" width="10" height="0.000" fill="#d95f02"/>
<rect x="982.500" y="270.000" width="10" height="0.000" fill="#d95f02"/>
<text x="545" y="290">0</text>
<text x="765" y="290">0.5</text>
<text x="975" y="290">1.0</text>
<text x="545" y="312">positive=2; negative=95</text>
<text x="35" y="335">predicted_axes / members</text>
<rect x="35" y="355" width="450" height="150" fill="none" stroke="#bbb"/>
<rect x="35.000" y="505.000" width="10" height="0.000" fill="#2166ac"/>
<rect x="57.500" y="505.000" width="10" height="0.000" fill="#2166ac"/>
<rect x="80.000" y="505.000" width="10" height="0.000" fill="#2166ac"/>
<rect x="102.500" y="505.000" width="10" height="0.000" fill="#2166ac"/>
<rect x="125.000" y="505.000" width="10" height="0.000" fill="#2166ac"/>
<rect x="147.500" y="505.000" width="10" height="0.000" fill="#2166ac"/>
<rect x="170.000" y="505.000" width="10" height="0.000" fill="#2166ac"/>
<rect x="192.500" y="505.000" width="10" height="0.000" fill="#2166ac"/>
<rect x="215.000" y="505.000" width="10" height="0.000" fill="#2166ac"/>
<rect x="237.500" y="505.000" width="10" height="0.000" fill="#2166ac"/>
<rect x="260.000" y="505.000" width="10" height="0.000" fill="#2166ac"/>
<rect x="282.500" y="505.000" width="10" height="0.000" fill="#2166ac"/>
<rect x="305.000" y="503.133" width="10" height="1.867" fill="#2166ac"/>
<rect x="327.500" y="501.888" width="10" height="3.112" fill="#2166ac"/>
<rect x="350.000" y="501.888" width="10" height="3.112" fill="#2166ac"/>
<rect x="372.500" y="490.685" width="10" height="14.315" fill="#2166ac"/>
<rect x="395.000" y="464.544" width="10" height="40.456" fill="#2166ac"/>
<rect x="417.500" y="424.710" width="10" height="80.290" fill="#2166ac"/>
<rect x="440.000" y="498.154" width="10" height="6.846" fill="#2166ac"/>
<rect x="462.500" y="505.000" width="10" height="0.000" fill="#2166ac"/>
<rect x="45.000" y="442.515" width="10" height="62.485" fill="#d95f02"/>
<rect x="67.500" y="490.250" width="10" height="14.750" fill="#d95f02"/>
<rect x="90.000" y="495.167" width="10" height="9.833" fill="#d95f02"/>
<rect x="112.500" y="497.759" width="10" height="7.241" fill="#d95f02"/>
<rect x="135.000" y="499.994" width="10" height="5.006" fill="#d95f02"/>
<rect x="157.500" y="499.726" width="10" height="5.274" fill="#d95f02"/>
<rect x="180.000" y="501.424" width="10" height="3.576" fill="#d95f02"/>
<rect x="202.500" y="500.620" width="10" height="4.380" fill="#d95f02"/>
<rect x="225.000" y="501.156" width="10" height="3.844" fill="#d95f02"/>
<rect x="247.500" y="500.709" width="10" height="4.291" fill="#d95f02"/>
<rect x="270.000" y="499.458" width="10" height="5.542" fill="#d95f02"/>
<rect x="292.500" y="500.352" width="10" height="4.648" fill="#d95f02"/>
<rect x="315.000" y="499.279" width="10" height="5.721" fill="#d95f02"/>
<rect x="337.500" y="500.888" width="10" height="4.112" fill="#d95f02"/>
<rect x="360.000" y="501.246" width="10" height="3.754" fill="#d95f02"/>
<rect x="382.500" y="502.676" width="10" height="2.324" fill="#d95f02"/>
<rect x="405.000" y="503.033" width="10" height="1.967" fill="#d95f02"/>
<rect x="427.500" y="503.838" width="10" height="1.162" fill="#d95f02"/>
<rect x="450.000" y="504.911" width="10" height="0.089" fill="#d95f02"/>
<rect x="472.500" y="505.000" width="10" height="0.000" fill="#d95f02"/>
<text x="35" y="525">0</text>
<text x="255" y="525">0.5</text>
<text x="465" y="525">1.0</text>
<text x="35" y="547">positive=241; negative=1678</text>
<text x="545" y="335">predicted_axes / junction</text>
<rect x="545" y="355" width="450" height="150" fill="none" stroke="#bbb"/>
<rect x="545.000" y="355.000" width="10" height="150.000" fill="#2166ac"/>
<rect x="567.500" y="505.000" width="10" height="0.000" fill="#2166ac"/>
<rect x="590.000" y="505.000" width="10" height="0.000" fill="#2166ac"/>
<rect x="612.500" y="505.000" width="10" height="0.000" fill="#2166ac"/>
<rect x="635.000" y="505.000" width="10" height="0.000" fill="#2166ac"/>
<rect x="657.500" y="505.000" width="10" height="0.000" fill="#2166ac"/>
<rect x="680.000" y="505.000" width="10" height="0.000" fill="#2166ac"/>
<rect x="702.500" y="505.000" width="10" height="0.000" fill="#2166ac"/>
<rect x="725.000" y="505.000" width="10" height="0.000" fill="#2166ac"/>
<rect x="747.500" y="505.000" width="10" height="0.000" fill="#2166ac"/>
<rect x="770.000" y="505.000" width="10" height="0.000" fill="#2166ac"/>
<rect x="792.500" y="505.000" width="10" height="0.000" fill="#2166ac"/>
<rect x="815.000" y="505.000" width="10" height="0.000" fill="#2166ac"/>
<rect x="837.500" y="505.000" width="10" height="0.000" fill="#2166ac"/>
<rect x="860.000" y="505.000" width="10" height="0.000" fill="#2166ac"/>
<rect x="882.500" y="505.000" width="10" height="0.000" fill="#2166ac"/>
<rect x="905.000" y="505.000" width="10" height="0.000" fill="#2166ac"/>
<rect x="927.500" y="505.000" width="10" height="0.000" fill="#2166ac"/>
<rect x="950.000" y="505.000" width="10" height="0.000" fill="#2166ac"/>
<rect x="972.500" y="505.000" width="10" height="0.000" fill="#2166ac"/>
<rect x="555.000" y="355.000" width="10" height="150.000" fill="#d95f02"/>
<rect x="577.500" y="505.000" width="10" height="0.000" fill="#d95f02"/>
<rect x="600.000" y="505.000" width="10" height="0.000" fill="#d95f02"/>
<rect x="622.500" y="505.000" width="10" height="0.000" fill="#d95f02"/>
<rect x="645.000" y="505.000" width="10" height="0.000" fill="#d95f02"/>
<rect x="667.500" y="505.000" width="10" height="0.000" fill="#d95f02"/>
<rect x="690.000" y="505.000" width="10" height="0.000" fill="#d95f02"/>
<rect x="712.500" y="505.000" width="10" height="0.000" fill="#d95f02"/>
<rect x="735.000" y="505.000" width="10" height="0.000" fill="#d95f02"/>
<rect x="757.500" y="505.000" width="10" height="0.000" fill="#d95f02"/>
<rect x="780.000" y="505.000" width="10" height="0.000" fill="#d95f02"/>
<rect x="802.500" y="505.000" width="10" height="0.000" fill="#d95f02"/>
<rect x="825.000" y="505.000" width="10" height="0.000" fill="#d95f02"/>
<rect x="847.500" y="505.000" width="10" height="0.000" fill="#d95f02"/>
<rect x="870.000" y="505.000" width="10" height="0.000" fill="#d95f02"/>
<rect x="892.500" y="505.000" width="10" height="0.000" fill="#d95f02"/>
<rect x="915.000" y="505.000" width="10" height="0.000" fill="#d95f02"/>
<rect x="937.500" y="505.000" width="10" height="0.000" fill="#d95f02"/>
<rect x="960.000" y="505.000" width="10" height="0.000" fill="#d95f02"/>
<rect x="982.500" y="505.000" width="10" height="0.000" fill="#d95f02"/>
<text x="545" y="525">0</text>
<text x="765" y="525">0.5</text>
<text x="975" y="525">1.0</text>
<text x="545" y="547">positive=2; negative=95</text>
<text x="35" y="570">predicted_no_relations / members</text>
<rect x="35" y="590" width="450" height="150" fill="none" stroke="#bbb"/>
<rect x="35.000" y="740.000" width="10" height="0.000" fill="#2166ac"/>
<rect x="57.500" y="740.000" width="10" height="0.000" fill="#2166ac"/>
<rect x="80.000" y="740.000" width="10" height="0.000" fill="#2166ac"/>
<rect x="102.500" y="740.000" width="10" height="0.000" fill="#2166ac"/>
<rect x="125.000" y="740.000" width="10" height="0.000" fill="#2166ac"/>
<rect x="147.500" y="740.000" width="10" height="0.000" fill="#2166ac"/>
<rect x="170.000" y="740.000" width="10" height="0.000" fill="#2166ac"/>
<rect x="192.500" y="740.000" width="10" height="0.000" fill="#2166ac"/>
<rect x="215.000" y="740.000" width="10" height="0.000" fill="#2166ac"/>
<rect x="237.500" y="740.000" width="10" height="0.000" fill="#2166ac"/>
<rect x="260.000" y="590.000" width="10" height="150.000" fill="#2166ac"/>
<rect x="282.500" y="740.000" width="10" height="0.000" fill="#2166ac"/>
<rect x="305.000" y="740.000" width="10" height="0.000" fill="#2166ac"/>
<rect x="327.500" y="740.000" width="10" height="0.000" fill="#2166ac"/>
<rect x="350.000" y="740.000" width="10" height="0.000" fill="#2166ac"/>
<rect x="372.500" y="740.000" width="10" height="0.000" fill="#2166ac"/>
<rect x="395.000" y="740.000" width="10" height="0.000" fill="#2166ac"/>
<rect x="417.500" y="740.000" width="10" height="0.000" fill="#2166ac"/>
<rect x="440.000" y="740.000" width="10" height="0.000" fill="#2166ac"/>
<rect x="462.500" y="740.000" width="10" height="0.000" fill="#2166ac"/>
<rect x="45.000" y="740.000" width="10" height="0.000" fill="#d95f02"/>
<rect x="67.500" y="740.000" width="10" height="0.000" fill="#d95f02"/>
<rect x="90.000" y="740.000" width="10" height="0.000" fill="#d95f02"/>
<rect x="112.500" y="740.000" width="10" height="0.000" fill="#d95f02"/>
<rect x="135.000" y="740.000" width="10" height="0.000" fill="#d95f02"/>
<rect x="157.500" y="740.000" width="10" height="0.000" fill="#d95f02"/>
<rect x="180.000" y="740.000" width="10" height="0.000" fill="#d95f02"/>
<rect x="202.500" y="740.000" width="10" height="0.000" fill="#d95f02"/>
<rect x="225.000" y="740.000" width="10" height="0.000" fill="#d95f02"/>
<rect x="247.500" y="740.000" width="10" height="0.000" fill="#d95f02"/>
<rect x="270.000" y="590.000" width="10" height="150.000" fill="#d95f02"/>
<rect x="292.500" y="740.000" width="10" height="0.000" fill="#d95f02"/>
<rect x="315.000" y="740.000" width="10" height="0.000" fill="#d95f02"/>
<rect x="337.500" y="740.000" width="10" height="0.000" fill="#d95f02"/>
<rect x="360.000" y="740.000" width="10" height="0.000" fill="#d95f02"/>
<rect x="382.500" y="740.000" width="10" height="0.000" fill="#d95f02"/>
<rect x="405.000" y="740.000" width="10" height="0.000" fill="#d95f02"/>
<rect x="427.500" y="740.000" width="10" height="0.000" fill="#d95f02"/>
<rect x="450.000" y="740.000" width="10" height="0.000" fill="#d95f02"/>
<rect x="472.500" y="740.000" width="10" height="0.000" fill="#d95f02"/>
<text x="35" y="760">0</text>
<text x="255" y="760">0.5</text>
<text x="465" y="760">1.0</text>
<text x="35" y="782">positive=241; negative=1678</text>
<text x="545" y="570">predicted_no_relations / junction</text>
<rect x="545" y="590" width="450" height="150" fill="none" stroke="#bbb"/>
<rect x="545.000" y="590.000" width="10" height="150.000" fill="#2166ac"/>
<rect x="567.500" y="740.000" width="10" height="0.000" fill="#2166ac"/>
<rect x="590.000" y="740.000" width="10" height="0.000" fill="#2166ac"/>
<rect x="612.500" y="740.000" width="10" height="0.000" fill="#2166ac"/>
<rect x="635.000" y="740.000" width="10" height="0.000" fill="#2166ac"/>
<rect x="657.500" y="740.000" width="10" height="0.000" fill="#2166ac"/>
<rect x="680.000" y="740.000" width="10" height="0.000" fill="#2166ac"/>
<rect x="702.500" y="740.000" width="10" height="0.000" fill="#2166ac"/>
<rect x="725.000" y="740.000" width="10" height="0.000" fill="#2166ac"/>
<rect x="747.500" y="740.000" width="10" height="0.000" fill="#2166ac"/>
<rect x="770.000" y="740.000" width="10" height="0.000" fill="#2166ac"/>
<rect x="792.500" y="740.000" width="10" height="0.000" fill="#2166ac"/>
<rect x="815.000" y="740.000" width="10" height="0.000" fill="#2166ac"/>
<rect x="837.500" y="740.000" width="10" height="0.000" fill="#2166ac"/>
<rect x="860.000" y="740.000" width="10" height="0.000" fill="#2166ac"/>
<rect x="882.500" y="740.000" width="10" height="0.000" fill="#2166ac"/>
<rect x="905.000" y="740.000" width="10" height="0.000" fill="#2166ac"/>
<rect x="927.500" y="740.000" width="10" height="0.000" fill="#2166ac"/>
<rect x="950.000" y="740.000" width="10" height="0.000" fill="#2166ac"/>
<rect x="972.500" y="740.000" width="10" height="0.000" fill="#2166ac"/>
<rect x="555.000" y="590.000" width="10" height="150.000" fill="#d95f02"/>
<rect x="577.500" y="740.000" width="10" height="0.000" fill="#d95f02"/>
<rect x="600.000" y="740.000" width="10" height="0.000" fill="#d95f02"/>
<rect x="622.500" y="740.000" width="10" height="0.000" fill="#d95f02"/>
<rect x="645.000" y="740.000" width="10" height="0.000" fill="#d95f02"/>
<rect x="667.500" y="740.000" width="10" height="0.000" fill="#d95f02"/>
<rect x="690.000" y="740.000" width="10" height="0.000" fill="#d95f02"/>
<rect x="712.500" y="740.000" width="10" height="0.000" fill="#d95f02"/>
<rect x="735.000" y="740.000" width="10" height="0.000" fill="#d95f02"/>
<rect x="757.500" y="740.000" width="10" height="0.000" fill="#d95f02"/>
<rect x="780.000" y="740.000" width="10" height="0.000" fill="#d95f02"/>
<rect x="802.500" y="740.000" width="10" height="0.000" fill="#d95f02"/>
<rect x="825.000" y="740.000" width="10" height="0.000" fill="#d95f02"/>
<rect x="847.500" y="740.000" width="10" height="0.000" fill="#d95f02"/>
<rect x="870.000" y="740.000" width="10" height="0.000" fill="#d95f02"/>
<rect x="892.500" y="740.000" width="10" height="0.000" fill="#d95f02"/>
<rect x="915.000" y="740.000" width="10" height="0.000" fill="#d95f02"/>
<rect x="937.500" y="740.000" width="10" height="0.000" fill="#d95f02"/>
<rect x="960.000" y="740.000" width="10" height="0.000" fill="#d95f02"/>
<rect x="982.500" y="740.000" width="10" height="0.000" fill="#d95f02"/>
<text x="545" y="760">0</text>
<text x="765" y="760">0.5</text>
<text x="975" y="760">1.0</text>
<text x="545" y="782">positive=2; negative=95</text>
</svg>