<svg xmlns="http://www.w3.org/2000/svg" width="1040" height="820">
<rect width="100%" height="100%" fill="white"/>
<text x="15" y="25">C01 FIT / S06_3d_branch_medium_C01__c1_mixed / all selected observations</text>
<text x="15" y="48">Fixed final score distributions: blue positive, orange negative; each class normalized separately.</text>
<text x="15" y="70">No threshold selection. Member decision remains 0.5; events remain original 3-class argmax.</text>
<text x="35" y="100">gt_axes / members</text>
<rect x="35" y="120" width="450" height="150" fill="none" stroke="#bbb"/>
<rect x="35.000" y="270.000" width="10" height="0.000" fill="#2166ac"/>
<rect x="57.500" y="270.000" width="10" height="0.000" fill="#2166ac"/>
<rect x="80.000" y="270.000" width="10" height="0.000" fill="#2166ac"/>
<rect x="102.500" y="270.000" width="10" height="0.000" fill="#2166ac"/>
<rect x="125.000" y="270.000" width="10" height="0.000" fill="#2166ac"/>
<rect x="147.500" y="270.000" width="10" height="0.000" fill="#2166ac"/>
<rect x="170.000" y="270.000" width="10" height="0.000" fill="#2166ac"/>
<rect x="192.500" y="270.000" width="10" height="0.000" fill="#2166ac"/>
<rect x="215.000" y="270.000" width="10" height="0.000" fill="#2166ac"/>
<rect x="237.500" y="270.000" width="10" height="0.000" fill="#2166ac"/>
<rect x="260.000" y="270.000" width="10" height="0.000" fill="#2166ac"/>
<rect x="282.500" y="270.000" width="10" height="0.000" fill="#2166ac"/>
<rect x="305.000" y="270.000" width="10" height="0.000" fill="#2166ac"/>
<rect x="327.500" y="270.000" width="10" height="0.000" fill="#2166ac"/>
<rect x="350.000" y="270.000" width="10" height="0.000" fill="#2166ac"/>
<rect x="372.500" y="270.000" width="10" height="0.000" fill="#2166ac"/>
<rect x="395.000" y="232.664" width="10" height="37.336" fill="#2166ac"/>
<rect x="417.500" y="182.227" width="10" height="87.773" fill="#2166ac"/>
<rect x="440.000" y="245.109" width="10" height="24.891" fill="#2166ac"/>
<rect x="462.500" y="270.000" width="10" height="0.000" fill="#2166ac"/>
<rect x="45.000" y="180.722" width="10" height="89.278" fill="#d95f02"/>
<rect x="67.500" y="258.950" width="10" height="11.050" fill="#d95f02"/>
<rect x="90.000" y="264.530" width="10" height="5.470" fill="#d95f02"/>
<rect x="112.500" y="262.998" width="10" height="7.002" fill="#d95f02"/>
<rect x="135.000" y="263.764" width="10" height="6.236" fill="#d95f02"/>
<rect x="157.500" y="261.904" width="10" height="8.096" fill="#d95f02"/>
<rect x="180.000" y="265.295" width="10" height="4.705" fill="#d95f02"/>
<rect x="202.500" y="265.405" width="10" height="4.595" fill="#d95f02"/>
<rect x="225.000" y="266.827" width="10" height="3.173" fill="#d95f02"/>
<rect x="247.500" y="266.389" width="10" height="3.611" fill="#d95f02"/>
<rect x="270.000" y="266.827" width="10" height="3.173" fill="#d95f02"/>
<rect x="292.500" y="268.031" width="10" height="1.969" fill="#d95f02"/>
<rect x="315.000" y="268.906" width="10" height="1.094" fill="#d95f02"/>
<rect x="337.500" y="269.453" width="10" height="0.547" fill="#d95f02"/>
<rect x="360.000" y="270.000" width="10" height="0.000" fill="#d95f02"/>
<rect x="382.500" y="270.000" width="10" height="0.000" fill="#d95f02"/>
<rect x="405.000" y="270.000" width="10" height="0.000" fill="#d95f02"/>
<rect x="427.500" y="270.000" width="10" height="0.000" fill="#d95f02"/>
<rect x="450.000" y="270.000" width="10" height="0.000" fill="#d95f02"/>
<rect x="472.500" y="270.000" width="10" height="0.000" fill="#d95f02"/>
<text x="35" y="290">0</text>
<text x="255" y="290">0.5</text>
<text x="465" y="290">1.0</text>
<text x="35" y="312">positive=229; negative=1371</text>
<text x="545" y="100">gt_axes / junction</text>
<rect x="545" y="120" width="450" height="150" fill="none" stroke="#bbb"/>
<rect x="545.000" y="120.000" width="10" height="150.000" fill="#2166ac"/>
<rect x="567.500" y="270.000" width="10" height="0.000" fill="#2166ac"/>
<rect x="590.000" y="270.000" width="10" height="0.000" fill="#2166ac"/>
<rect x="612.500" y="270.000" width="10" height="0.000" fill="#2166ac"/>
<rect x="635.000" y="270.000" width="10" height="0.000" fill="#2166ac"/>
<rect x="657.500" y="270.000" width="10" height="0.000" fill="#2166ac"/>
<rect x="680.000" y="270.000" width="10" height="0.000" fill="#2166ac"/>
<rect x="702.500" y="270.000" width="10" height="0.000" fill="#2166ac"/>
<rect x="725.000" y="270.000" width="10" height="0.000" fill="#2166ac"/>
<rect x="747.500" y="270.000" width="10" height="0.000" fill="#2166ac"/>
<rect x="770.000" y="270.000" width="10" height="0.000" fill="#2166ac"/>
<rect x="792.500" y="270.000" width="10" height="0.000" fill="#2166ac"/>
<rect x="815.000" y="270.000" width="10" height="0.000" fill="#2166ac"/>
<rect x="837.500" y="270.000" width="10" height="0.000" fill="#2166ac"/>
<rect x="860.000" y="270.000" width="10" height="0.000" fill="#2166ac"/>
<rect x="882.500" y="270.000" width="10" height="0.000" fill="#2166ac"/>
<rect x="905.000" y="270.000" width="10" height="0.000" fill="#2166ac"/>
<rect x="927.500" y="270.000" width="10" height="0.000" fill="#2166ac"/>
<rect x="950.000" y="270.000" width="10" height="0.000" fill="#2166ac"/>
<rect x="972.500" y="270.000" width="10" height="0.000" fill="#2166ac"/>
<rect x="555.000" y="120.000" width="10" height="150.000" fill="#d95f02"/>
<rect x="577.500" y="270.000" width="10" height="0.000" fill="#d95f02"/>
<rect x="600.000" y="270.000" width="10" height="0.000" fill="#d95f02"/>
<rect x="622.500" y="270.000" width="10" height="0.000" fill="#d95f02"/>
<rect x="645.000" y="270.000" width="10" height="0.000" fill="#d95f02"/>
<rect x="667.500" y="270.000" width="10" height="0.000" fill="#d95f02"/>
<rect x="690.000" y="270.000" width="10" height="0.000" fill="#d95f02"/>
<rect x="712.500" y="270.000" width="10" height="0.000" fill="#d95f02"/>
<rect x="735.000" y="270.000" width="10" height="0.000" fill="#d95f02"/>
<rect x="757.500" y="270.000" width="10" height="0.000" fill="#d95f02"/>
<rect x="780.000" y="270.000" width="10" height="0.000" fill="#d95f02"/>
<rect x="802.500" y="270.000" width="10" height="0.000" fill="#d95f02"/>
<rect x="825.000" y="270.000" width="10" height="0.000" fill="#d95f02"/>
<rect x="847.500" y="270.000" width="10" height="0.000" fill="#d95f02"/>
<rect x="870.000" y="270.000" width="10" height="0.000" fill="#d95f02"/>
<rect x="892.500" y="270.000" width="10" height="0.000" fill="#d95f02"/>
<rect x="915.000" y="270.000" width="10" height="0.000" fill="#d95f02"/>
<rect x="937.500" y="270.000" width="10" height="0.000" fill="#d95f02"/>
<rect x="960.000" y="270.000" width="10" height="0.000" fill="#d95f02"/>
<rect x="982.500" y="270.000" width="10" height="0.000" fill="#d95f02"/>
<text x="545" y="290">0</text>
<text x="765" y="290">0.5</text>
<text x="975" y="290">1.0</text>
<text x="545" y="312">positive=6; negative=86</text>
<text x="35" y="335">predicted_axes / members</text>
<rect x="35" y="355" width="450" height="150" fill="none" stroke="#bbb"/>
<rect x="35.000" y="505.000" width="10" height="0.000" fill="#2166ac"/>
<rect x="57.500" y="505.000" width="10" height="0.000" fill="#2166ac"/>
<rect x="80.000" y="505.000" width="10" height="0.000" fill="#2166ac"/>
<rect x="102.500" y="505.000" width="10" height="0.000" fill="#2166ac"/>
<rect x="125.000" y="505.000" width="10" height="0.000" fill="#2166ac"/>
<rect x="147.500" y="505.000" width="10" height="0.000" fill="#2166ac"/>
<rect x="170.000" y="505.000" width="10" height="0.000" fill="#2166ac"/>
<rect x="192.500" y="505.000" width="10" height="0.000" fill="#2166ac"/>
<rect x="215.000" y="504.345" width="10" height="0.655" fill="#2166ac"/>
<rect x="237.500" y="505.000" width="10" height="0.000" fill="#2166ac"/>
<rect x="260.000" y="505.000" width="10" height="0.000" fill="#2166ac"/>
<rect x="282.500" y="503.690" width="10" height="1.310" fill="#2166ac"/>
<rect x="305.000" y="503.035" width="10" height="1.965" fill="#2166ac"/>
<rect x="327.500" y="504.345" width="10" height="0.655" fill="#2166ac"/>
<rect x="350.000" y="501.725" width="10" height="3.275" fill="#2166ac"/>
<rect x="372.500" y="493.210" width="10" height="11.790" fill="#2166ac"/>
<rect x="395.000" y="467.664" width="10" height="37.336" fill="#2166ac"/>
<rect x="417.500" y="433.603" width="10" height="71.397" fill="#2166ac"/>
<rect x="440.000" y="483.384" width="10" height="21.616" fill="#2166ac"/>
<rect x="462.500" y="505.000" width="10" height="0.000" fill="#2166ac"/>
<rect x="45.000" y="434.540" width="10" height="70.460" fill="#d95f02"/>
<rect x="67.500" y="488.589" width="10" height="16.411" fill="#d95f02"/>
<rect x="90.000" y="498.217" width="10" height="6.783" fill="#d95f02"/>
<rect x="112.500" y="501.499" width="10" height="3.501" fill="#d95f02"/>
<rect x="135.000" y="500.186" width="10" height="4.814" fill="#d95f02"/>
<rect x="157.500" y="498.873" width="10" height="6.127" fill="#d95f02"/>
<rect x="180.000" y="498.435" width="10" height="6.565" fill="#d95f02"/>
<rect x="202.500" y="498.982" width="10" height="6.018" fill="#d95f02"/>
<rect x="225.000" y="499.092" width="10" height="5.908" fill="#d95f02"/>
<rect x="247.500" y="500.514" width="10" height="4.486" fill="#d95f02"/>
<rect x="270.000" y="500.295" width="10" height="4.705" fill="#d95f02"/>
<rect x="292.500" y="501.718" width="10" height="3.282" fill="#d95f02"/>
<rect x="315.000" y="502.374" width="10" height="2.626" fill="#d95f02"/>
<rect x="337.500" y="502.921" width="10" height="2.079" fill="#d95f02"/>
<rect x="360.000" y="502.921" width="10" height="2.079" fill="#d95f02"/>
<rect x="382.500" y="503.031" width="10" height="1.969" fill="#d95f02"/>
<rect x="405.000" y="503.796" width="10" height="1.204" fill="#d95f02"/>
<rect x="427.500" y="504.015" width="10" height="0.985" fill="#d95f02"/>
<rect x="450.000" y="505.000" width="10" height="0.000" fill="#d95f02"/>
<rect x="472.500" y="505.000" width="10" height="0.000" fill="#d95f02"/>
<text x="35" y="525">0</text>
<text x="255" y="525">0.5</text>
<text x="465" y="525">1.0</text>
<text x="35" y="547">positive=229; negative=1371</text>
<text x="545" y="335">predicted_axes / junction</text>
<rect x="545" y="355" width="450" height="150" fill="none" stroke="#bbb"/>
<rect x="545.000" y="355.000" width="10" height="150.000" fill="#2166ac"/>
<rect x="567.500" y="505.000" width="10" height="0.000" fill="#2166ac"/>
<rect x="590.000" y="505.000" width="10" height="0.000" fill="#2166ac"/>
<rect x="612.500" y="505.000" width="10" height="0.000" fill="#2166ac"/>
<rect x="635.000" y="505.000" width="10" height="0.000" fill="#2166ac"/>
<rect x="657.500" y="505.000" width="10" height="0.000" fill="#2166ac"/>
<rect x="680.000" y="505.000" width="10" height="0.000" fill="#2166ac"/>
<rect x="702.500" y="505.000" width="10" height="0.000" fill="#2166ac"/>
<rect x="725.000" y="505.000" width="10" height="0.000" fill="#2166ac"/>
<rect x="747.500" y="505.000" width="10" height="0.000" fill="#2166ac"/>
<rect x="770.000" y="505.000" width="10" height="0.000" fill="#2166ac"/>
<rect x="792.500" y="505.000" width="10" height="0.000" fill="#2166ac"/>
<rect x="815.000" y="505.000" width="10" height="0.000" fill="#2166ac"/>
<rect x="837.500" y="505.000" width="10" height="0.000" fill="#2166ac"/>
<rect x="860.000" y="505.000" width="10" height="0.000" fill="#2166ac"/>
<rect x="882.500" y="505.000" width="10" height="0.000" fill="#2166ac"/>
<rect x="905.000" y="505.000" width="10" height="0.000" fill="#2166ac"/>
<rect x="927.500" y="505.000" width="10" height="0.000" fill="#2166ac"/>
<rect x="950.000" y="505.000" width="10" height="0.000" fill="#2166ac"/>
<rect x="972.500" y="505.000" width="10" height="0.000" fill="#2166ac"/>
<rect x="555.000" y="355.000" width="10" height="150.000" fill="#d95f02"/>
<rect x="577.500" y="505.000" width="10" height="0.000" fill="#d95f02"/>
<rect x="600.000" y="505.000" width="10" height="0.000" fill="#d95f02"/>
<rect x="622.500" y="505.000" width="10" height="0.000" fill="#d95f02"/>
<rect x="645.000" y="505.000" width="10" height="0.000" fill="#d95f02"/>
<rect x="667.500" y="505.000" width="10" height="0.000" fill="#d95f02"/>
<rect x="690.000" y="505.000" width="10" height="0.000" fill="#d95f02"/>
<rect x="712.500" y="505.000" width="10" height="0.000" fill="#d95f02"/>
<rect x="735.000" y="505.000" width="10" height="0.000" fill="#d95f02"/>
<rect x="757.500" y="505.000" width="10" height="0.000" fill="#d95f02"/>
<rect x="780.000" y="505.000" width="10" height="0.000" fill="#d95f02"/>
<rect x="802.500" y="505.000" width="10" height="0.000" fill="#d95f02"/>
<rect x="825.000" y="505.000" width="10" height="0.000" fill="#d95f02"/>
<rect x="847.500" y="505.000" width="10" height="0.000" fill="#d95f02"/>
<rect x="870.000" y="505.000" width="10" height="0.000" fill="#d95f02"/>
<rect x="892.500" y="505.000" width="10" height="0.000" fill="#d95f02"/>
<rect x="915.000" y="505.000" width="10" height="0.000" fill="#d95f02"/>
<rect x="937.500" y="505.000" width="10" height="0.000" fill="#d95f02"/>
<rect x="960.000" y="505.000" width="10" height="0.000" fill="#d95f02"/>
<rect x="982.500" y="505.000" width="10" height="0.000" fill="#d95f02"/>
<text x="545" y="525">0</text>
<text x="765" y="525">0.5</text>
<text x="975" y="525">1.0</text>
<text x="545" y="547">positive=6; negative=86</text>
<text x="35" y="570">predicted_no_relations / members</text>
<rect x="35" y="590" width="450" height="150" fill="none" stroke="#bbb"/>
<rect x="35.000" y="740.000" width="10" height="0.000" fill="#2166ac"/>
<rect x="57.500" y="740.000" width="10" height="0.000" fill="#2166ac"/>
<rect x="80.000" y="740.000" width="10" height="0.000" fill="#2166ac"/>
<rect x="102.500" y="740.000" width="10" height="0.000" fill="#2166ac"/>
<rect x="125.000" y="740.000" width="10" height="0.000" fill="#2166ac"/>
<rect x="147.500" y="740.000" width="10" height="0.000" fill="#2166ac"/>
<rect x="170.000" y="740.000" width="10" height="0.000" fill="#2166ac"/>
<rect x="192.500" y="740.000" width="10" height="0.000" fill="#2166ac"/>
<rect x="215.000" y="740.000" width="10" height="0.000" fill="#2166ac"/>
<rect x="237.500" y="740.000" width="10" height="0.000" fill="#2166ac"/>
<rect x="260.000" y="590.000" width="10" height="150.000" fill="#2166ac"/>
<rect x="282.500" y="740.000" width="10" height="0.000" fill="#2166ac"/>
<rect x="305.000" y="740.000" width="10" height="0.000" fill="#2166ac"/>
<rect x="327.500" y="740.000" width="10" height="0.000" fill="#2166ac"/>
<rect x="350.000" y="740.000" width="10" height="0.000" fill="#2166ac"/>
<rect x="372.500" y="740.000" width="10" height="0.000" fill="#2166ac"/>
<rect x="395.000" y="740.000" width="10" height="0.000" fill="#2166ac"/>
<rect x="417.500" y="740.000" width="10" height="0.000" fill="#2166ac"/>
<rect x="440.000" y="740.000" width="10" height="0.000" fill="#2166ac"/>
<rect x="462.500" y="740.000" width="10" height="0.000" fill="#2166ac"/>
<rect x="45.000" y="740.000" width="10" height="0.000" fill="#d95f02"/>
<rect x="67.500" y="740.000" width="10" height="0.000" fill="#d95f02"/>
<rect x="90.000" y="740.000" width="10" height="0.000" fill="#d95f02"/>
<rect x="112.500" y="740.000" width="10" height="0.000" fill="#d95f02"/>
<rect x="135.000" y="740.000" width="10" height="0.000" fill="#d95f02"/>
<rect x="157.500" y="740.000" width="10" height="0.000" fill="#d95f02"/>
<rect x="180.000" y="740.000" width="10" height="0.000" fill="#d95f02"/>
<rect x="202.500" y="740.000" width="10" height="0.000" fill="#d95f02"/>
<rect x="225.000" y="740.000" width="10" height="0.000" fill="#d95f02"/>
<rect x="247.500" y="740.000" width="10" height="0.000" fill="#d95f02"/>
<rect x="270.000" y="590.000" width="10" height="150.000" fill="#d95f02"/>
<rect x="292.500" y="740.000" width="10" height="0.000" fill="#d95f02"/>
<rect x="315.000" y="740.000" width="10" height="0.000" fill="#d95f02"/>
<rect x="337.500" y="740.000" width="10" height="0.000" fill="#d95f02"/>
<rect x="360.000" y="740.000" width="10" height="0.000" fill="#d95f02"/>
<rect x="382.500" y="740.000" width="10" height="0.000" fill="#d95f02"/>
<rect x="405.000" y="740.000" width="10" height="0.000" fill="#d95f02"/>
<rect x="427.500" y="740.000" width="10" height="0.000" fill="#d95f02"/>
<rect x="450.000" y="740.000" width="10" height="0.000" fill="#d95f02"/>
<rect x="472.500" y="740.000" width="10" height="0.000" fill="#d95f02"/>
<text x="35" y="760">0</text>
<text x="255" y="760">0.5</text>
<text x="465" y="760">1.0</text>
<text x="35" y="782">positive=229; negative=1371</text>
<text x="545" y="570">predicted_no_relations / junction</text>
<rect x="545" y="590" width="450" height="150" fill="none" stroke="#bbb"/>
<rect x="545.000" y="590.000" width="10" height="150.000" fill="#2166ac"/>
<rect x="567.500" y="740.000" width="10" height="0.000" fill="#2166ac"/>
<rect x="590.000" y="740.000" width="10" height="0.000" fill="#2166ac"/>
<rect x="612.500" y="740.000" width="10" height="0.000" fill="#2166ac"/>
<rect x="635.000" y="740.000" width="10" height="0.000" fill="#2166ac"/>
<rect x="657.500" y="740.000" width="10" height="0.000" fill="#2166ac"/>
<rect x="680.000" y="740.000" width="10" height="0.000" fill="#2166ac"/>
<rect x="702.500" y="740.000" width="10" height="0.000" fill="#2166ac"/>
<rect x="725.000" y="740.000" width="10" height="0.000" fill="#2166ac"/>
<rect x="747.500" y="740.000" width="10" height="0.000" fill="#2166ac"/>
<rect x="770.000" y="740.000" width="10" height="0.000" fill="#2166ac"/>
<rect x="792.500" y="740.000" width="10" height="0.000" fill="#2166ac"/>
<rect x="815.000" y="740.000" width="10" height="0.000" fill="#2166ac"/>
<rect x="837.500" y="740.000" width="10" height="0.000" fill="#2166ac"/>
<rect x="860.000" y="740.000" width="10" height="0.000" fill="#2166ac"/>
<rect x="882.500" y="740.000" width="10" height="0.000" fill="#2166ac"/>
<rect x="905.000" y="740.000" width="10" height="0.000" fill="#2166ac"/>
<rect x="927.500" y="740.000" width="10" height="0.000" fill="#2166ac"/>
<rect x="950.000" y="740.000" width="10" height="0.000" fill="#2166ac"/>
<rect x="972.500" y="740.000" width="10" height="0.000" fill="#2166ac"/>
<rect x="555.000" y="590.000" width="10" height="150.000" fill="#d95f02"/>
<rect x="577.500" y="740.000" width="10" height="0.000" fill="#d95f02"/>
<rect x="600.000" y="740.000" width="10" height="0.000" fill="#d95f02"/>
<rect x="622.500" y="740.000" width="10" height="0.000" fill="#d95f02"/>
<rect x="645.000" y="740.000" width="10" height="0.000" fill="#d95f02"/>
<rect x="667.500" y="740.000" width="10" height="0.000" fill="#d95f02"/>
<rect x="690.000" y="740.000" width="10" height="0.000" fill="#d95f02"/>
<rect x="712.500" y="740.000" width="10" height="0.000" fill="#d95f02"/>
<rect x="735.000" y="740.000" width="10" height="0.000" fill="#d95f02"/>
<rect x="757.500" y="740.000" width="10" height="0.000" fill="#d95f02"/>
<rect x="780.000" y="740.000" width="10" height="0.000" fill="#d95f02"/>
<rect x="802.500" y="740.000" width="10" height="0.000" fill="#d95f02"/>
<rect x="825.000" y="740.000" width="10" height="0.000" fill="#d95f02"/>
<rect x="847.500" y="740.000" width="10" height="0.000" fill="#d95f02"/>
<rect x="870.000" y="740.000" width="10" height="0.000" fill="#d95f02"/>
<rect x="892.500" y="740.000" width="10" height="0.000" fill="#d95f02"/>
<rect x="915.000" y="740.000" width="10" height="0.000" fill="#d95f02"/>
<rect x="937.500" y="740.000" width="10" height="0.000" fill="#d95f02"/>
<rect x="960.000" y="740.000" width="10" height="0.000" fill="#d95f02"/>
<rect x="982.500" y="740.000" width="10" height="0.000" fill="#d95f02"/>
<text x="545" y="760">0</text>
<text x="765" y="760">0.5</text>
<text x="975" y="760">1.0</text>
<text x="545" y="782">positive=6; negative=86</text>
</svg>