<?xml version="1.0" encoding="utf-8" standalone="no"?>
<!DOCTYPE svg PUBLIC "-//W3C//DTD SVG 1.1//EN"
  "http://www.w3.org/Graphics/SVG/1.1/DTD/svg11.dtd">
<svg xmlns:xlink="http://www.w3.org/1999/xlink" width="828pt" height="576pt" viewBox="0 0 828 576" xmlns="http://www.w3.org/2000/svg" version="1.1">
 <metadata>
  <rdf:RDF xmlns:dc="http://purl.org/dc/elements/1.1/" xmlns:cc="http://creativecommons.org/ns#" xmlns:rdf="http://www.w3.org/1999/02/22-rdf-syntax-ns#">
   <cc:Work>
    <dc:type rdf:resource="http://purl.org/dc/dcmitype/StillImage"/>
    <dc:date>2026-08-29T12:41:49.974613</dc:date>
    <dc:format>image/svg+xml</dc:format>
    <dc:creator>
     <cc:Agent>
      <dc:title>Matplotlib v3.10.0, https://matplotlib.org/</dc:title>
     </cc:Agent>
    </dc:creator>
   </cc:Work>
  </rdf:RDF>
 </metadata>
 <defs>
  <style type="text/css">*{stroke-linejoin: round; stroke-linecap: butt}</style>
 </defs>
 <g id="figure_1">
  <g id="patch_1">
   <path d="M 0 576 
L 828 576 
L 828 0 
L 0 0 
z
" style="fill: #ffffff"/>
  </g>
  <g id="axes_1">
   <g id="patch_2">
    <path d="M 48.17524 262.562511 
L 417.1975 262.562511 
L 417.1975 35.732595 
L 48.17524 35.732595 
z
" style="fill: #ffffff"/>
   </g>
   <g id="matplotlib.axis_1">
    <g id="xtick_1">
     <g id="line2d_1">
      <defs>
       <path id="m49f5fa1186" d="M 0 0 
L 0 3.5 
" style="stroke: #000000; stroke-width: 0.8"/>
      </defs>
      <g>
       <use xlink:href="#m49f5fa1186" x="112.873948" y="262.562511" style="stroke: #000000; stroke-width: 0.8"/>
      </g>
     </g>
     <g id="text_1">
      <!-- fit -->
      <g transform="translate(107.764573 277.160949) scale(0.1 -0.1)">
       <defs>
        <path id="DejaVuSans-66" d="M 2375 4863 
L 2375 4384 
L 1825 4384 
Q 1516 4384 1395 4259 
Q 1275 4134 1275 3809 
L 1275 3500 
L 2222 3500 
L 2222 3053 
L 1275 3053 
L 1275 0 
L 697 0 
L 697 3053 
L 147 3053 
L 147 3500 
L 697 3500 
L 697 3744 
Q 697 4328 969 4595 
Q 1241 4863 1831 4863 
L 2375 4863 
z
" transform="scale(0.015625)"/>
        <path id="DejaVuSans-69" d="M 603 3500 
L 1178 3500 
L 1178 0 
L 603 0 
L 603 3500 
z
M 603 4863 
L 1178 4863 
L 1178 4134 
L 603 4134 
L 603 4863 
z
" transform="scale(0.015625)"/>
        <path id="DejaVuSans-74" d="M 1172 4494 
L 1172 3500 
L 2356 3500 
L 2356 3053 
L 1172 3053 
L 1172 1153 
Q 1172 725 1289 603 
Q 1406 481 1766 481 
L 2356 481 
L 2356 0 
L 1766 0 
Q 1100 0 847 248 
Q 594 497 594 1153 
L 594 3053 
L 172 3053 
L 172 3500 
L 594 3500 
L 594 4494 
L 1172 4494 
z
" transform="scale(0.015625)"/>
       </defs>
       <use xlink:href="#DejaVuSans-66"/>
       <use xlink:href="#DejaVuSans-69" transform="translate(35.205078 0)"/>
       <use xlink:href="#DejaVuSans-74" transform="translate(62.988281 0)"/>
      </g>
     </g>
    </g>
    <g id="xtick_2">
     <g id="line2d_2">
      <g>
       <use xlink:href="#m49f5fa1186" x="232.68637" y="262.562511" style="stroke: #000000; stroke-width: 0.8"/>
      </g>
     </g>
     <g id="text_2">
      <!-- C07 -->
      <g transform="translate(222.832464 277.160949) scale(0.1 -0.1)">
       <defs>
        <path id="DejaVuSans-43" d="M 4122 4306 
L 4122 3641 
Q 3803 3938 3442 4084 
Q 3081 4231 2675 4231 
Q 1875 4231 1450 3742 
Q 1025 3253 1025 2328 
Q 1025 1406 1450 917 
Q 1875 428 2675 428 
Q 3081 428 3442 575 
Q 3803 722 4122 1019 
L 4122 359 
Q 3791 134 3420 21 
Q 3050 -91 2638 -91 
Q 1578 -91 968 557 
Q 359 1206 359 2328 
Q 359 3453 968 4101 
Q 1578 4750 2638 4750 
Q 3056 4750 3426 4639 
Q 3797 4528 4122 4306 
z
" transform="scale(0.015625)"/>
        <path id="DejaVuSans-30" d="M 2034 4250 
Q 1547 4250 1301 3770 
Q 1056 3291 1056 2328 
Q 1056 1369 1301 889 
Q 1547 409 2034 409 
Q 2525 409 2770 889 
Q 3016 1369 3016 2328 
Q 3016 3291 2770 3770 
Q 2525 4250 2034 4250 
z
M 2034 4750 
Q 2819 4750 3233 4129 
Q 3647 3509 3647 2328 
Q 3647 1150 3233 529 
Q 2819 -91 2034 -91 
Q 1250 -91 836 529 
Q 422 1150 422 2328 
Q 422 3509 836 4129 
Q 1250 4750 2034 4750 
z
" transform="scale(0.015625)"/>
        <path id="DejaVuSans-37" d="M 525 4666 
L 3525 4666 
L 3525 4397 
L 1831 0 
L 1172 0 
L 2766 4134 
L 525 4134 
L 525 4666 
z
" transform="scale(0.015625)"/>
       </defs>
       <use xlink:href="#DejaVuSans-43"/>
       <use xlink:href="#DejaVuSans-30" transform="translate(69.824219 0)"/>
       <use xlink:href="#DejaVuSans-37" transform="translate(133.447266 0)"/>
      </g>
     </g>
    </g>
    <g id="xtick_3">
     <g id="line2d_3">
      <g>
       <use xlink:href="#m49f5fa1186" x="352.498792" y="262.562511" style="stroke: #000000; stroke-width: 0.8"/>
      </g>
     </g>
     <g id="text_3">
      <!-- C08 -->
      <g transform="translate(342.644886 277.160949) scale(0.1 -0.1)">
       <defs>
        <path id="DejaVuSans-38" d="M 2034 2216 
Q 1584 2216 1326 1975 
Q 1069 1734 1069 1313 
Q 1069 891 1326 650 
Q 1584 409 2034 409 
Q 2484 409 2743 651 
Q 3003 894 3003 1313 
Q 3003 1734 2745 1975 
Q 2488 2216 2034 2216 
z
M 1403 2484 
Q 997 2584 770 2862 
Q 544 3141 544 3541 
Q 544 4100 942 4425 
Q 1341 4750 2034 4750 
Q 2731 4750 3128 4425 
Q 3525 4100 3525 3541 
Q 3525 3141 3298 2862 
Q 3072 2584 2669 2484 
Q 3125 2378 3379 2068 
Q 3634 1759 3634 1313 
Q 3634 634 3220 271 
Q 2806 -91 2034 -91 
Q 1263 -91 848 271 
Q 434 634 434 1313 
Q 434 1759 690 2068 
Q 947 2378 1403 2484 
z
M 1172 3481 
Q 1172 3119 1398 2916 
Q 1625 2713 2034 2713 
Q 2441 2713 2670 2916 
Q 2900 3119 2900 3481 
Q 2900 3844 2670 4047 
Q 2441 4250 2034 4250 
Q 1625 4250 1398 4047 
Q 1172 3844 1172 3481 
z
" transform="scale(0.015625)"/>
       </defs>
       <use xlink:href="#DejaVuSans-43"/>
       <use xlink:href="#DejaVuSans-30" transform="translate(69.824219 0)"/>
       <use xlink:href="#DejaVuSans-38" transform="translate(133.447266 0)"/>
      </g>
     </g>
    </g>
   </g>
   <g id="matplotlib.axis_2">
    <g id="ytick_1">
     <g id="line2d_4">
      <path d="M 48.17524 262.562511 
L 417.1975 262.562511 
" clip-path="url(#p15c6a38b16)" style="fill: none; stroke: #b0b0b0; stroke-opacity: 0.2; stroke-width: 0.8; stroke-linecap: square"/>
     </g>
     <g id="line2d_5">
      <defs>
       <path id="mf94d9952f7" d="M 0 0 
L -3.5 0 
" style="stroke: #000000; stroke-width: 0.8"/>
      </defs>
      <g>
       <use xlink:href="#mf94d9952f7" x="48.17524" y="262.562511" style="stroke: #000000; stroke-width: 0.8"/>
      </g>
     </g>
     <g id="text_4">
      <!-- 0 -->
      <g transform="translate(34.81274 266.36173) scale(0.1 -0.1)">
       <use xlink:href="#DejaVuSans-30"/>
      </g>
     </g>
    </g>
    <g id="ytick_2">
     <g id="line2d_6">
      <path d="M 48.17524 232.175338 
L 417.1975 232.175338 
" clip-path="url(#p15c6a38b16)" style="fill: none; stroke: #b0b0b0; stroke-opacity: 0.2; stroke-width: 0.8; stroke-linecap: square"/>
     </g>
     <g id="line2d_7">
      <g>
       <use xlink:href="#mf94d9952f7" x="48.17524" y="232.175338" style="stroke: #000000; stroke-width: 0.8"/>
      </g>
     </g>
     <g id="text_5">
      <!-- 20000 -->
      <g transform="translate(9.36274 235.974557) scale(0.1 -0.1)">
       <defs>
        <path id="DejaVuSans-32" d="M 1228 531 
L 3431 531 
L 3431 0 
L 469 0 
L 469 531 
Q 828 903 1448 1529 
Q 2069 2156 2228 2338 
Q 2531 2678 2651 2914 
Q 2772 3150 2772 3378 
Q 2772 3750 2511 3984 
Q 2250 4219 1831 4219 
Q 1534 4219 1204 4116 
Q 875 4013 500 3803 
L 500 4441 
Q 881 4594 1212 4672 
Q 1544 4750 1819 4750 
Q 2544 4750 2975 4387 
Q 3406 4025 3406 3419 
Q 3406 3131 3298 2873 
Q 3191 2616 2906 2266 
Q 2828 2175 2409 1742 
Q 1991 1309 1228 531 
z
" transform="scale(0.015625)"/>
       </defs>
       <use xlink:href="#DejaVuSans-32"/>
       <use xlink:href="#DejaVuSans-30" transform="translate(63.623047 0)"/>
       <use xlink:href="#DejaVuSans-30" transform="translate(127.246094 0)"/>
       <use xlink:href="#DejaVuSans-30" transform="translate(190.869141 0)"/>
       <use xlink:href="#DejaVuSans-30" transform="translate(254.492188 0)"/>
      </g>
     </g>
    </g>
    <g id="ytick_3">
     <g id="line2d_8">
      <path d="M 48.17524 201.788165 
L 417.1975 201.788165 
" clip-path="url(#p15c6a38b16)" style="fill: none; stroke: #b0b0b0; stroke-opacity: 0.2; stroke-width: 0.8; stroke-linecap: square"/>
     </g>
     <g id="line2d_9">
      <g>
       <use xlink:href="#mf94d9952f7" x="48.17524" y="201.788165" style="stroke: #000000; stroke-width: 0.8"/>
      </g>
     </g>
     <g id="text_6">
      <!-- 40000 -->
      <g transform="translate(9.36274 205.587383) scale(0.1 -0.1)">
       <defs>
        <path id="DejaVuSans-34" d="M 2419 4116 
L 825 1625 
L 2419 1625 
L 2419 4116 
z
M 2253 4666 
L 3047 4666 
L 3047 1625 
L 3713 1625 
L 3713 1100 
L 3047 1100 
L 3047 0 
L 2419 0 
L 2419 1100 
L 313 1100 
L 313 1709 
L 2253 4666 
z
" transform="scale(0.015625)"/>
       </defs>
       <use xlink:href="#DejaVuSans-34"/>
       <use xlink:href="#DejaVuSans-30" transform="translate(63.623047 0)"/>
       <use xlink:href="#DejaVuSans-30" transform="translate(127.246094 0)"/>
       <use xlink:href="#DejaVuSans-30" transform="translate(190.869141 0)"/>
       <use xlink:href="#DejaVuSans-30" transform="translate(254.492188 0)"/>
      </g>
     </g>
    </g>
    <g id="ytick_4">
     <g id="line2d_10">
      <path d="M 48.17524 171.400992 
L 417.1975 171.400992 
" clip-path="url(#p15c6a38b16)" style="fill: none; stroke: #b0b0b0; stroke-opacity: 0.2; stroke-width: 0.8; stroke-linecap: square"/>
     </g>
     <g id="line2d_11">
      <g>
       <use xlink:href="#mf94d9952f7" x="48.17524" y="171.400992" style="stroke: #000000; stroke-width: 0.8"/>
      </g>
     </g>
     <g id="text_7">
      <!-- 60000 -->
      <g transform="translate(9.36274 175.20021) scale(0.1 -0.1)">
       <defs>
        <path id="DejaVuSans-36" d="M 2113 2584 
Q 1688 2584 1439 2293 
Q 1191 2003 1191 1497 
Q 1191 994 1439 701 
Q 1688 409 2113 409 
Q 2538 409 2786 701 
Q 3034 994 3034 1497 
Q 3034 2003 2786 2293 
Q 2538 2584 2113 2584 
z
M 3366 4563 
L 3366 3988 
Q 3128 4100 2886 4159 
Q 2644 4219 2406 4219 
Q 1781 4219 1451 3797 
Q 1122 3375 1075 2522 
Q 1259 2794 1537 2939 
Q 1816 3084 2150 3084 
Q 2853 3084 3261 2657 
Q 3669 2231 3669 1497 
Q 3669 778 3244 343 
Q 2819 -91 2113 -91 
Q 1303 -91 875 529 
Q 447 1150 447 2328 
Q 447 3434 972 4092 
Q 1497 4750 2381 4750 
Q 2619 4750 2861 4703 
Q 3103 4656 3366 4563 
z
" transform="scale(0.015625)"/>
       </defs>
       <use xlink:href="#DejaVuSans-36"/>
       <use xlink:href="#DejaVuSans-30" transform="translate(63.623047 0)"/>
       <use xlink:href="#DejaVuSans-30" transform="translate(127.246094 0)"/>
       <use xlink:href="#DejaVuSans-30" transform="translate(190.869141 0)"/>
       <use xlink:href="#DejaVuSans-30" transform="translate(254.492188 0)"/>
      </g>
     </g>
    </g>
    <g id="ytick_5">
     <g id="line2d_12">
      <path d="M 48.17524 141.013818 
L 417.1975 141.013818 
" clip-path="url(#p15c6a38b16)" style="fill: none; stroke: #b0b0b0; stroke-opacity: 0.2; stroke-width: 0.8; stroke-linecap: square"/>
     </g>
     <g id="line2d_13">
      <g>
       <use xlink:href="#mf94d9952f7" x="48.17524" y="141.013818" style="stroke: #000000; stroke-width: 0.8"/>
      </g>
     </g>
     <g id="text_8">
      <!-- 80000 -->
      <g transform="translate(9.36274 144.813037) scale(0.1 -0.1)">
       <use xlink:href="#DejaVuSans-38"/>
       <use xlink:href="#DejaVuSans-30" transform="translate(63.623047 0)"/>
       <use xlink:href="#DejaVuSans-30" transform="translate(127.246094 0)"/>
       <use xlink:href="#DejaVuSans-30" transform="translate(190.869141 0)"/>
       <use xlink:href="#DejaVuSans-30" transform="translate(254.492188 0)"/>
      </g>
     </g>
    </g>
    <g id="ytick_6">
     <g id="line2d_14">
      <path d="M 48.17524 110.626645 
L 417.1975 110.626645 
" clip-path="url(#p15c6a38b16)" style="fill: none; stroke: #b0b0b0; stroke-opacity: 0.2; stroke-width: 0.8; stroke-linecap: square"/>
     </g>
     <g id="line2d_15">
      <g>
       <use xlink:href="#mf94d9952f7" x="48.17524" y="110.626645" style="stroke: #000000; stroke-width: 0.8"/>
      </g>
     </g>
     <g id="text_9">
      <!-- 100000 -->
      <g transform="translate(3.00024 114.425864) scale(0.1 -0.1)">
       <defs>
        <path id="DejaVuSans-31" d="M 794 531 
L 1825 531 
L 1825 4091 
L 703 3866 
L 703 4441 
L 1819 4666 
L 2450 4666 
L 2450 531 
L 3481 531 
L 3481 0 
L 794 0 
L 794 531 
z
" transform="scale(0.015625)"/>
       </defs>
       <use xlink:href="#DejaVuSans-31"/>
       <use xlink:href="#DejaVuSans-30" transform="translate(63.623047 0)"/>
       <use xlink:href="#DejaVuSans-30" transform="translate(127.246094 0)"/>
       <use xlink:href="#DejaVuSans-30" transform="translate(190.869141 0)"/>
       <use xlink:href="#DejaVuSans-30" transform="translate(254.492188 0)"/>
       <use xlink:href="#DejaVuSans-30" transform="translate(318.115234 0)"/>
      </g>
     </g>
    </g>
    <g id="ytick_7">
     <g id="line2d_16">
      <path d="M 48.17524 80.239472 
L 417.1975 80.239472 
" clip-path="url(#p15c6a38b16)" style="fill: none; stroke: #b0b0b0; stroke-opacity: 0.2; stroke-width: 0.8; stroke-linecap: square"/>
     </g>
     <g id="line2d_17">
      <g>
       <use xlink:href="#mf94d9952f7" x="48.17524" y="80.239472" style="stroke: #000000; stroke-width: 0.8"/>
      </g>
     </g>
     <g id="text_10">
      <!-- 120000 -->
      <g transform="translate(3.00024 84.038691) scale(0.1 -0.1)">
       <use xlink:href="#DejaVuSans-31"/>
       <use xlink:href="#DejaVuSans-32" transform="translate(63.623047 0)"/>
       <use xlink:href="#DejaVuSans-30" transform="translate(127.246094 0)"/>
       <use xlink:href="#DejaVuSans-30" transform="translate(190.869141 0)"/>
       <use xlink:href="#DejaVuSans-30" transform="translate(254.492188 0)"/>
       <use xlink:href="#DejaVuSans-30" transform="translate(318.115234 0)"/>
      </g>
     </g>
    </g>
    <g id="ytick_8">
     <g id="line2d_18">
      <path d="M 48.17524 49.852299 
L 417.1975 49.852299 
" clip-path="url(#p15c6a38b16)" style="fill: none; stroke: #b0b0b0; stroke-opacity: 0.2; stroke-width: 0.8; stroke-linecap: square"/>
     </g>
     <g id="line2d_19">
      <g>
       <use xlink:href="#mf94d9952f7" x="48.17524" y="49.852299" style="stroke: #000000; stroke-width: 0.8"/>
      </g>
     </g>
     <g id="text_11">
      <!-- 140000 -->
      <g transform="translate(3.00024 53.651518) scale(0.1 -0.1)">
       <use xlink:href="#DejaVuSans-31"/>
       <use xlink:href="#DejaVuSans-34" transform="translate(63.623047 0)"/>
       <use xlink:href="#DejaVuSans-30" transform="translate(127.246094 0)"/>
       <use xlink:href="#DejaVuSans-30" transform="translate(190.869141 0)"/>
       <use xlink:href="#DejaVuSans-30" transform="translate(254.492188 0)"/>
       <use xlink:href="#DejaVuSans-30" transform="translate(318.115234 0)"/>
      </g>
     </g>
    </g>
   </g>
   <g id="patch_3">
    <path d="M 64.948979 262.562511 
L 160.798917 262.562511 
L 160.798917 46.53402 
L 64.948979 46.53402 
z
" clip-path="url(#p15c6a38b16)" style="fill: #4e79a7"/>
   </g>
   <g id="patch_4">
    <path d="M 184.761401 262.562511 
L 280.611339 262.562511 
L 280.611339 229.823371 
L 184.761401 229.823371 
z
" clip-path="url(#p15c6a38b16)" style="fill: #4e79a7"/>
   </g>
   <g id="patch_5">
    <path d="M 304.573823 262.562511 
L 400.423761 262.562511 
L 400.423761 225.499276 
L 304.573823 225.499276 
z
" clip-path="url(#p15c6a38b16)" style="fill: #4e79a7"/>
   </g>
   <g id="patch_6">
    <path d="M 48.17524 262.562511 
L 48.17524 35.732595 
" style="fill: none; stroke: #000000; stroke-width: 0.8; stroke-linejoin: miter; stroke-linecap: square"/>
   </g>
   <g id="patch_7">
    <path d="M 417.1975 262.562511 
L 417.1975 35.732595 
" style="fill: none; stroke: #000000; stroke-width: 0.8; stroke-linejoin: miter; stroke-linecap: square"/>
   </g>
   <g id="patch_8">
    <path d="M 48.17524 262.562511 
L 417.1975 262.562511 
" style="fill: none; stroke: #000000; stroke-width: 0.8; stroke-linejoin: miter; stroke-linecap: square"/>
   </g>
   <g id="patch_9">
    <path d="M 48.17524 35.732595 
L 417.1975 35.732595 
" style="fill: none; stroke: #000000; stroke-width: 0.8; stroke-linejoin: miter; stroke-linecap: square"/>
   </g>
   <g id="text_12">
    <!-- A  Sealed observations -->
    <g transform="translate(163.904808 29.732595) scale(0.12 -0.12)">
     <defs>
      <path id="DejaVuSans-41" d="M 2188 4044 
L 1331 1722 
L 3047 1722 
L 2188 4044 
z
M 1831 4666 
L 2547 4666 
L 4325 0 
L 3669 0 
L 3244 1197 
L 1141 1197 
L 716 0 
L 50 0 
L 1831 4666 
z
" transform="scale(0.015625)"/>
      <path id="DejaVuSans-20" transform="scale(0.015625)"/>
      <path id="DejaVuSans-53" d="M 3425 4513 
L 3425 3897 
Q 3066 4069 2747 4153 
Q 2428 4238 2131 4238 
Q 1616 4238 1336 4038 
Q 1056 3838 1056 3469 
Q 1056 3159 1242 3001 
Q 1428 2844 1947 2747 
L 2328 2669 
Q 3034 2534 3370 2195 
Q 3706 1856 3706 1288 
Q 3706 609 3251 259 
Q 2797 -91 1919 -91 
Q 1588 -91 1214 -16 
Q 841 59 441 206 
L 441 856 
Q 825 641 1194 531 
Q 1563 422 1919 422 
Q 2459 422 2753 634 
Q 3047 847 3047 1241 
Q 3047 1584 2836 1778 
Q 2625 1972 2144 2069 
L 1759 2144 
Q 1053 2284 737 2584 
Q 422 2884 422 3419 
Q 422 4038 858 4394 
Q 1294 4750 2059 4750 
Q 2388 4750 2728 4690 
Q 3069 4631 3425 4513 
z
" transform="scale(0.015625)"/>
      <path id="DejaVuSans-65" d="M 3597 1894 
L 3597 1613 
L 953 1613 
Q 991 1019 1311 708 
Q 1631 397 2203 397 
Q 2534 397 2845 478 
Q 3156 559 3463 722 
L 3463 178 
Q 3153 47 2828 -22 
Q 2503 -91 2169 -91 
Q 1331 -91 842 396 
Q 353 884 353 1716 
Q 353 2575 817 3079 
Q 1281 3584 2069 3584 
Q 2775 3584 3186 3129 
Q 3597 2675 3597 1894 
z
M 3022 2063 
Q 3016 2534 2758 2815 
Q 2500 3097 2075 3097 
Q 1594 3097 1305 2825 
Q 1016 2553 972 2059 
L 3022 2063 
z
" transform="scale(0.015625)"/>
      <path id="DejaVuSans-61" d="M 2194 1759 
Q 1497 1759 1228 1600 
Q 959 1441 959 1056 
Q 959 750 1161 570 
Q 1363 391 1709 391 
Q 2188 391 2477 730 
Q 2766 1069 2766 1631 
L 2766 1759 
L 2194 1759 
z
M 3341 1997 
L 3341 0 
L 2766 0 
L 2766 531 
Q 2569 213 2275 61 
Q 1981 -91 1556 -91 
Q 1019 -91 701 211 
Q 384 513 384 1019 
Q 384 1609 779 1909 
Q 1175 2209 1959 2209 
L 2766 2209 
L 2766 2266 
Q 2766 2663 2505 2880 
Q 2244 3097 1772 3097 
Q 1472 3097 1187 3025 
Q 903 2953 641 2809 
L 641 3341 
Q 956 3463 1253 3523 
Q 1550 3584 1831 3584 
Q 2591 3584 2966 3190 
Q 3341 2797 3341 1997 
z
" transform="scale(0.015625)"/>
      <path id="DejaVuSans-6c" d="M 603 4863 
L 1178 4863 
L 1178 0 
L 603 0 
L 603 4863 
z
" transform="scale(0.015625)"/>
      <path id="DejaVuSans-64" d="M 2906 2969 
L 2906 4863 
L 3481 4863 
L 3481 0 
L 2906 0 
L 2906 525 
Q 2725 213 2448 61 
Q 2172 -91 1784 -91 
Q 1150 -91 751 415 
Q 353 922 353 1747 
Q 353 2572 751 3078 
Q 1150 3584 1784 3584 
Q 2172 3584 2448 3432 
Q 2725 3281 2906 2969 
z
M 947 1747 
Q 947 1113 1208 752 
Q 1469 391 1925 391 
Q 2381 391 2643 752 
Q 2906 1113 2906 1747 
Q 2906 2381 2643 2742 
Q 2381 3103 1925 3103 
Q 1469 3103 1208 2742 
Q 947 2381 947 1747 
z
" transform="scale(0.015625)"/>
      <path id="DejaVuSans-6f" d="M 1959 3097 
Q 1497 3097 1228 2736 
Q 959 2375 959 1747 
Q 959 1119 1226 758 
Q 1494 397 1959 397 
Q 2419 397 2687 759 
Q 2956 1122 2956 1747 
Q 2956 2369 2687 2733 
Q 2419 3097 1959 3097 
z
M 1959 3584 
Q 2709 3584 3137 3096 
Q 3566 2609 3566 1747 
Q 3566 888 3137 398 
Q 2709 -91 1959 -91 
Q 1206 -91 779 398 
Q 353 888 353 1747 
Q 353 2609 779 3096 
Q 1206 3584 1959 3584 
z
" transform="scale(0.015625)"/>
      <path id="DejaVuSans-62" d="M 3116 1747 
Q 3116 2381 2855 2742 
Q 2594 3103 2138 3103 
Q 1681 3103 1420 2742 
Q 1159 2381 1159 1747 
Q 1159 1113 1420 752 
Q 1681 391 2138 391 
Q 2594 391 2855 752 
Q 3116 1113 3116 1747 
z
M 1159 2969 
Q 1341 3281 1617 3432 
Q 1894 3584 2278 3584 
Q 2916 3584 3314 3078 
Q 3713 2572 3713 1747 
Q 3713 922 3314 415 
Q 2916 -91 2278 -91 
Q 1894 -91 1617 61 
Q 1341 213 1159 525 
L 1159 0 
L 581 0 
L 581 4863 
L 1159 4863 
L 1159 2969 
z
" transform="scale(0.015625)"/>
      <path id="DejaVuSans-73" d="M 2834 3397 
L 2834 2853 
Q 2591 2978 2328 3040 
Q 2066 3103 1784 3103 
Q 1356 3103 1142 2972 
Q 928 2841 928 2578 
Q 928 2378 1081 2264 
Q 1234 2150 1697 2047 
L 1894 2003 
Q 2506 1872 2764 1633 
Q 3022 1394 3022 966 
Q 3022 478 2636 193 
Q 2250 -91 1575 -91 
Q 1294 -91 989 -36 
Q 684 19 347 128 
L 347 722 
Q 666 556 975 473 
Q 1284 391 1588 391 
Q 1994 391 2212 530 
Q 2431 669 2431 922 
Q 2431 1156 2273 1281 
Q 2116 1406 1581 1522 
L 1381 1569 
Q 847 1681 609 1914 
Q 372 2147 372 2553 
Q 372 3047 722 3315 
Q 1072 3584 1716 3584 
Q 2034 3584 2315 3537 
Q 2597 3491 2834 3397 
z
" transform="scale(0.015625)"/>
      <path id="DejaVuSans-72" d="M 2631 2963 
Q 2534 3019 2420 3045 
Q 2306 3072 2169 3072 
Q 1681 3072 1420 2755 
Q 1159 2438 1159 1844 
L 1159 0 
L 581 0 
L 581 3500 
L 1159 3500 
L 1159 2956 
Q 1341 3275 1631 3429 
Q 1922 3584 2338 3584 
Q 2397 3584 2469 3576 
Q 2541 3569 2628 3553 
L 2631 2963 
z
" transform="scale(0.015625)"/>
      <path id="DejaVuSans-76" d="M 191 3500 
L 800 3500 
L 1894 563 
L 2988 3500 
L 3597 3500 
L 2284 0 
L 1503 0 
L 191 3500 
z
" transform="scale(0.015625)"/>
      <path id="DejaVuSans-6e" d="M 3513 2113 
L 3513 0 
L 2938 0 
L 2938 2094 
Q 2938 2591 2744 2837 
Q 2550 3084 2163 3084 
Q 1697 3084 1428 2787 
Q 1159 2491 1159 1978 
L 1159 0 
L 581 0 
L 581 3500 
L 1159 3500 
L 1159 2956 
Q 1366 3272 1645 3428 
Q 1925 3584 2291 3584 
Q 2894 3584 3203 3211 
Q 3513 2838 3513 2113 
z
" transform="scale(0.015625)"/>
     </defs>
     <use xlink:href="#DejaVuSans-41"/>
     <use xlink:href="#DejaVuSans-20" transform="translate(68.408203 0)"/>
     <use xlink:href="#DejaVuSans-20" transform="translate(100.195312 0)"/>
     <use xlink:href="#DejaVuSans-53" transform="translate(131.982422 0)"/>
     <use xlink:href="#DejaVuSans-65" transform="translate(195.458984 0)"/>
     <use xlink:href="#DejaVuSans-61" transform="translate(256.982422 0)"/>
     <use xlink:href="#DejaVuSans-6c" transform="translate(318.261719 0)"/>
     <use xlink:href="#DejaVuSans-65" transform="translate(346.044922 0)"/>
     <use xlink:href="#DejaVuSans-64" transform="translate(407.568359 0)"/>
     <use xlink:href="#DejaVuSans-20" transform="translate(471.044922 0)"/>
     <use xlink:href="#DejaVuSans-6f" transform="translate(502.832031 0)"/>
     <use xlink:href="#DejaVuSans-62" transform="translate(564.013672 0)"/>
     <use xlink:href="#DejaVuSans-73" transform="translate(627.490234 0)"/>
     <use xlink:href="#DejaVuSans-65" transform="translate(679.589844 0)"/>
     <use xlink:href="#DejaVuSans-72" transform="translate(741.113281 0)"/>
     <use xlink:href="#DejaVuSans-76" transform="translate(782.226562 0)"/>
     <use xlink:href="#DejaVuSans-61" transform="translate(841.40625 0)"/>
     <use xlink:href="#DejaVuSans-74" transform="translate(902.685547 0)"/>
     <use xlink:href="#DejaVuSans-69" transform="translate(941.894531 0)"/>
     <use xlink:href="#DejaVuSans-6f" transform="translate(969.677734 0)"/>
     <use xlink:href="#DejaVuSans-6e" transform="translate(1030.859375 0)"/>
     <use xlink:href="#DejaVuSans-73" transform="translate(1094.238281 0)"/>
    </g>
   </g>
  </g>
  <g id="axes_2">
   <g id="patch_10">
    <path d="M 455.9775 262.562511 
L 824.99976 262.562511 
L 824.99976 35.732595 
L 455.9775 35.732595 
z
" style="fill: #ffffff"/>
   </g>
   <g id="matplotlib.axis_3">
    <g id="xtick_4">
     <g id="line2d_20">
      <g>
       <use xlink:href="#m49f5fa1186" x="547.301191" y="262.562511" style="stroke: #000000; stroke-width: 0.8"/>
      </g>
     </g>
     <g id="text_13">
      <!-- keys -->
      <g transform="translate(535.946503 277.160949) scale(0.1 -0.1)">
       <defs>
        <path id="DejaVuSans-6b" d="M 581 4863 
L 1159 4863 
L 1159 1991 
L 2875 3500 
L 3609 3500 
L 1753 1863 
L 3688 0 
L 2938 0 
L 1159 1709 
L 1159 0 
L 581 0 
L 581 4863 
z
" transform="scale(0.015625)"/>
        <path id="DejaVuSans-79" d="M 2059 -325 
Q 1816 -950 1584 -1140 
Q 1353 -1331 966 -1331 
L 506 -1331 
L 506 -850 
L 844 -850 
Q 1081 -850 1212 -737 
Q 1344 -625 1503 -206 
L 1606 56 
L 191 3500 
L 800 3500 
L 1894 763 
L 2988 3500 
L 3597 3500 
L 2059 -325 
z
" transform="scale(0.015625)"/>
       </defs>
       <use xlink:href="#DejaVuSans-6b"/>
       <use xlink:href="#DejaVuSans-65" transform="translate(54.285156 0)"/>
       <use xlink:href="#DejaVuSans-79" transform="translate(115.808594 0)"/>
       <use xlink:href="#DejaVuSans-73" transform="translate(174.988281 0)"/>
      </g>
     </g>
    </g>
    <g id="xtick_5">
     <g id="line2d_21">
      <g>
       <use xlink:href="#m49f5fa1186" x="733.676069" y="262.562511" style="stroke: #000000; stroke-width: 0.8"/>
      </g>
     </g>
     <g id="text_14">
      <!-- exact -->
      <g transform="translate(719.954194 277.160949) scale(0.1 -0.1)">
       <defs>
        <path id="DejaVuSans-78" d="M 3513 3500 
L 2247 1797 
L 3578 0 
L 2900 0 
L 1881 1375 
L 863 0 
L 184 0 
L 1544 1831 
L 300 3500 
L 978 3500 
L 1906 2253 
L 2834 3500 
L 3513 3500 
z
" transform="scale(0.015625)"/>
        <path id="DejaVuSans-63" d="M 3122 3366 
L 3122 2828 
Q 2878 2963 2633 3030 
Q 2388 3097 2138 3097 
Q 1578 3097 1268 2742 
Q 959 2388 959 1747 
Q 959 1106 1268 751 
Q 1578 397 2138 397 
Q 2388 397 2633 464 
Q 2878 531 3122 666 
L 3122 134 
Q 2881 22 2623 -34 
Q 2366 -91 2075 -91 
Q 1284 -91 818 406 
Q 353 903 353 1747 
Q 353 2603 823 3093 
Q 1294 3584 2113 3584 
Q 2378 3584 2631 3529 
Q 2884 3475 3122 3366 
z
" transform="scale(0.015625)"/>
       </defs>
       <use xlink:href="#DejaVuSans-65"/>
       <use xlink:href="#DejaVuSans-78" transform="translate(59.773438 0)"/>
       <use xlink:href="#DejaVuSans-61" transform="translate(118.953125 0)"/>
       <use xlink:href="#DejaVuSans-63" transform="translate(180.232422 0)"/>
       <use xlink:href="#DejaVuSans-74" transform="translate(235.212891 0)"/>
      </g>
     </g>
    </g>
   </g>
   <g id="matplotlib.axis_4">
    <g id="ytick_9">
     <g id="line2d_22">
      <path d="M 455.9775 262.562511 
L 824.99976 262.562511 
" clip-path="url(#p58472bca47)" style="fill: none; stroke: #b0b0b0; stroke-opacity: 0.2; stroke-width: 0.8; stroke-linecap: square"/>
     </g>
     <g id="line2d_23">
      <g>
       <use xlink:href="#mf94d9952f7" x="455.9775" y="262.562511" style="stroke: #000000; stroke-width: 0.8"/>
      </g>
     </g>
     <g id="text_15">
      <!-- 0 -->
      <g transform="translate(442.615 266.36173) scale(0.1 -0.1)">
       <use xlink:href="#DejaVuSans-30"/>
      </g>
     </g>
    </g>
    <g id="ytick_10">
     <g id="line2d_24">
      <path d="M 455.9775 221.802418 
L 824.99976 221.802418 
" clip-path="url(#p58472bca47)" style="fill: none; stroke: #b0b0b0; stroke-opacity: 0.2; stroke-width: 0.8; stroke-linecap: square"/>
     </g>
     <g id="line2d_25">
      <g>
       <use xlink:href="#mf94d9952f7" x="455.9775" y="221.802418" style="stroke: #000000; stroke-width: 0.8"/>
      </g>
     </g>
     <g id="text_16">
      <!-- 10 -->
      <g transform="translate(436.2525 225.601637) scale(0.1 -0.1)">
       <use xlink:href="#DejaVuSans-31"/>
       <use xlink:href="#DejaVuSans-30" transform="translate(63.623047 0)"/>
      </g>
     </g>
    </g>
    <g id="ytick_11">
     <g id="line2d_26">
      <path d="M 455.9775 181.042326 
L 824.99976 181.042326 
" clip-path="url(#p58472bca47)" style="fill: none; stroke: #b0b0b0; stroke-opacity: 0.2; stroke-width: 0.8; stroke-linecap: square"/>
     </g>
     <g id="line2d_27">
      <g>
       <use xlink:href="#mf94d9952f7" x="455.9775" y="181.042326" style="stroke: #000000; stroke-width: 0.8"/>
      </g>
     </g>
     <g id="text_17">
      <!-- 20 -->
      <g transform="translate(436.2525 184.841544) scale(0.1 -0.1)">
       <use xlink:href="#DejaVuSans-32"/>
       <use xlink:href="#DejaVuSans-30" transform="translate(63.623047 0)"/>
      </g>
     </g>
    </g>
    <g id="ytick_12">
     <g id="line2d_28">
      <path d="M 455.9775 140.282233 
L 824.99976 140.282233 
" clip-path="url(#p58472bca47)" style="fill: none; stroke: #b0b0b0; stroke-opacity: 0.2; stroke-width: 0.8; stroke-linecap: square"/>
     </g>
     <g id="line2d_29">
      <g>
       <use xlink:href="#mf94d9952f7" x="455.9775" y="140.282233" style="stroke: #000000; stroke-width: 0.8"/>
      </g>
     </g>
     <g id="text_18">
      <!-- 30 -->
      <g transform="translate(436.2525 144.081452) scale(0.1 -0.1)">
       <defs>
        <path id="DejaVuSans-33" d="M 2597 2516 
Q 3050 2419 3304 2112 
Q 3559 1806 3559 1356 
Q 3559 666 3084 287 
Q 2609 -91 1734 -91 
Q 1441 -91 1130 -33 
Q 819 25 488 141 
L 488 750 
Q 750 597 1062 519 
Q 1375 441 1716 441 
Q 2309 441 2620 675 
Q 2931 909 2931 1356 
Q 2931 1769 2642 2001 
Q 2353 2234 1838 2234 
L 1294 2234 
L 1294 2753 
L 1863 2753 
Q 2328 2753 2575 2939 
Q 2822 3125 2822 3475 
Q 2822 3834 2567 4026 
Q 2313 4219 1838 4219 
Q 1578 4219 1281 4162 
Q 984 4106 628 3988 
L 628 4550 
Q 988 4650 1302 4700 
Q 1616 4750 1894 4750 
Q 2613 4750 3031 4423 
Q 3450 4097 3450 3541 
Q 3450 3153 3228 2886 
Q 3006 2619 2597 2516 
z
" transform="scale(0.015625)"/>
       </defs>
       <use xlink:href="#DejaVuSans-33"/>
       <use xlink:href="#DejaVuSans-30" transform="translate(63.623047 0)"/>
      </g>
     </g>
    </g>
    <g id="ytick_13">
     <g id="line2d_30">
      <path d="M 455.9775 99.52214 
L 824.99976 99.52214 
" clip-path="url(#p58472bca47)" style="fill: none; stroke: #b0b0b0; stroke-opacity: 0.2; stroke-width: 0.8; stroke-linecap: square"/>
     </g>
     <g id="line2d_31">
      <g>
       <use xlink:href="#mf94d9952f7" x="455.9775" y="99.52214" style="stroke: #000000; stroke-width: 0.8"/>
      </g>
     </g>
     <g id="text_19">
      <!-- 40 -->
      <g transform="translate(436.2525 103.321359) scale(0.1 -0.1)">
       <use xlink:href="#DejaVuSans-34"/>
       <use xlink:href="#DejaVuSans-30" transform="translate(63.623047 0)"/>
      </g>
     </g>
    </g>
    <g id="ytick_14">
     <g id="line2d_32">
      <path d="M 455.9775 58.762047 
L 824.99976 58.762047 
" clip-path="url(#p58472bca47)" style="fill: none; stroke: #b0b0b0; stroke-opacity: 0.2; stroke-width: 0.8; stroke-linecap: square"/>
     </g>
     <g id="line2d_33">
      <g>
       <use xlink:href="#mf94d9952f7" x="455.9775" y="58.762047" style="stroke: #000000; stroke-width: 0.8"/>
      </g>
     </g>
     <g id="text_20">
      <!-- 50 -->
      <g transform="translate(436.2525 62.561266) scale(0.1 -0.1)">
       <defs>
        <path id="DejaVuSans-35" d="M 691 4666 
L 3169 4666 
L 3169 4134 
L 1269 4134 
L 1269 2991 
Q 1406 3038 1543 3061 
Q 1681 3084 1819 3084 
Q 2600 3084 3056 2656 
Q 3513 2228 3513 1497 
Q 3513 744 3044 326 
Q 2575 -91 1722 -91 
Q 1428 -91 1123 -41 
Q 819 9 494 109 
L 494 744 
Q 775 591 1075 516 
Q 1375 441 1709 441 
Q 2250 441 2565 725 
Q 2881 1009 2881 1497 
Q 2881 1984 2565 2268 
Q 2250 2553 1709 2553 
Q 1456 2553 1204 2497 
Q 953 2441 691 2322 
L 691 4666 
z
" transform="scale(0.015625)"/>
       </defs>
       <use xlink:href="#DejaVuSans-35"/>
       <use xlink:href="#DejaVuSans-30" transform="translate(63.623047 0)"/>
      </g>
     </g>
    </g>
   </g>
   <g id="patch_11">
    <path d="M 472.751239 262.562511 
L 621.851142 262.562511 
L 621.851142 46.53402 
L 472.751239 46.53402 
z
" clip-path="url(#p58472bca47)" style="fill: #59a14f"/>
   </g>
   <g id="patch_12">
    <path d="M 659.126118 262.562511 
L 808.226021 262.562511 
L 808.226021 46.53402 
L 659.126118 46.53402 
z
" clip-path="url(#p58472bca47)" style="fill: #59a14f"/>
   </g>
   <g id="patch_13">
    <path d="M 455.9775 262.562511 
L 455.9775 35.732595 
" style="fill: none; stroke: #000000; stroke-width: 0.8; stroke-linejoin: miter; stroke-linecap: square"/>
   </g>
   <g id="patch_14">
    <path d="M 824.99976 262.562511 
L 824.99976 35.732595 
" style="fill: none; stroke: #000000; stroke-width: 0.8; stroke-linejoin: miter; stroke-linecap: square"/>
   </g>
   <g id="patch_15">
    <path d="M 455.9775 262.562511 
L 824.99976 262.562511 
" style="fill: none; stroke: #000000; stroke-width: 0.8; stroke-linejoin: miter; stroke-linecap: square"/>
   </g>
   <g id="patch_16">
    <path d="M 455.9775 35.732595 
L 824.99976 35.732595 
" style="fill: none; stroke: #000000; stroke-width: 0.8; stroke-linejoin: miter; stroke-linecap: square"/>
   </g>
   <g id="text_21">
    <!-- B  Reused backbone state -->
    <g transform="translate(562.291755 29.732595) scale(0.12 -0.12)">
     <defs>
      <path id="DejaVuSans-42" d="M 1259 2228 
L 1259 519 
L 2272 519 
Q 2781 519 3026 730 
Q 3272 941 3272 1375 
Q 3272 1813 3026 2020 
Q 2781 2228 2272 2228 
L 1259 2228 
z
M 1259 4147 
L 1259 2741 
L 2194 2741 
Q 2656 2741 2882 2914 
Q 3109 3088 3109 3444 
Q 3109 3797 2882 3972 
Q 2656 4147 2194 4147 
L 1259 4147 
z
M 628 4666 
L 2241 4666 
Q 2963 4666 3353 4366 
Q 3744 4066 3744 3513 
Q 3744 3084 3544 2831 
Q 3344 2578 2956 2516 
Q 3422 2416 3680 2098 
Q 3938 1781 3938 1306 
Q 3938 681 3513 340 
Q 3088 0 2303 0 
L 628 0 
L 628 4666 
z
" transform="scale(0.015625)"/>
      <path id="DejaVuSans-52" d="M 2841 2188 
Q 3044 2119 3236 1894 
Q 3428 1669 3622 1275 
L 4263 0 
L 3584 0 
L 2988 1197 
Q 2756 1666 2539 1819 
Q 2322 1972 1947 1972 
L 1259 1972 
L 1259 0 
L 628 0 
L 628 4666 
L 2053 4666 
Q 2853 4666 3247 4331 
Q 3641 3997 3641 3322 
Q 3641 2881 3436 2590 
Q 3231 2300 2841 2188 
z
M 1259 4147 
L 1259 2491 
L 2053 2491 
Q 2509 2491 2742 2702 
Q 2975 2913 2975 3322 
Q 2975 3731 2742 3939 
Q 2509 4147 2053 4147 
L 1259 4147 
z
" transform="scale(0.015625)"/>
      <path id="DejaVuSans-75" d="M 544 1381 
L 544 3500 
L 1119 3500 
L 1119 1403 
Q 1119 906 1312 657 
Q 1506 409 1894 409 
Q 2359 409 2629 706 
Q 2900 1003 2900 1516 
L 2900 3500 
L 3475 3500 
L 3475 0 
L 2900 0 
L 2900 538 
Q 2691 219 2414 64 
Q 2138 -91 1772 -91 
Q 1169 -91 856 284 
Q 544 659 544 1381 
z
M 1991 3584 
L 1991 3584 
z
" transform="scale(0.015625)"/>
     </defs>
     <use xlink:href="#DejaVuSans-42"/>
     <use xlink:href="#DejaVuSans-20" transform="translate(68.603516 0)"/>
     <use xlink:href="#DejaVuSans-20" transform="translate(100.390625 0)"/>
     <use xlink:href="#DejaVuSans-52" transform="translate(132.177734 0)"/>
     <use xlink:href="#DejaVuSans-65" transform="translate(197.160156 0)"/>
     <use xlink:href="#DejaVuSans-75" transform="translate(258.683594 0)"/>
     <use xlink:href="#DejaVuSans-73" transform="translate(322.0625 0)"/>
     <use xlink:href="#DejaVuSans-65" transform="translate(374.162109 0)"/>
     <use xlink:href="#DejaVuSans-64" transform="translate(435.685547 0)"/>
     <use xlink:href="#DejaVuSans-20" transform="translate(499.162109 0)"/>
     <use xlink:href="#DejaVuSans-62" transform="translate(530.949219 0)"/>
     <use xlink:href="#DejaVuSans-61" transform="translate(594.425781 0)"/>
     <use xlink:href="#DejaVuSans-63" transform="translate(655.705078 0)"/>
     <use xlink:href="#DejaVuSans-6b" transform="translate(710.685547 0)"/>
     <use xlink:href="#DejaVuSans-62" transform="translate(768.595703 0)"/>
     <use xlink:href="#DejaVuSans-6f" transform="translate(832.072266 0)"/>
     <use xlink:href="#DejaVuSans-6e" transform="translate(893.253906 0)"/>
     <use xlink:href="#DejaVuSans-65" transform="translate(956.632812 0)"/>
     <use xlink:href="#DejaVuSans-20" transform="translate(1018.15625 0)"/>
     <use xlink:href="#DejaVuSans-73" transform="translate(1049.943359 0)"/>
     <use xlink:href="#DejaVuSans-74" transform="translate(1102.042969 0)"/>
     <use xlink:href="#DejaVuSans-61" transform="translate(1141.251953 0)"/>
     <use xlink:href="#DejaVuSans-74" transform="translate(1202.53125 0)"/>
     <use xlink:href="#DejaVuSans-65" transform="translate(1241.740234 0)"/>
    </g>
   </g>
  </g>
  <g id="axes_3">
   <g id="patch_17">
    <path d="M 48.17524 527.189157 
L 417.1975 527.189157 
L 417.1975 300.359241 
L 48.17524 300.359241 
z
" style="fill: #ffffff"/>
   </g>
   <g id="matplotlib.axis_5">
    <g id="xtick_6">
     <g id="line2d_34">
      <g>
       <use xlink:href="#m49f5fa1186" x="100.262114" y="527.189157" style="stroke: #000000; stroke-width: 0.8"/>
      </g>
     </g>
     <g id="text_22">
      <!-- proposal -->
      <g transform="translate(80.697556 554.683635) rotate(-18) scale(0.1 -0.1)">
       <defs>
        <path id="DejaVuSans-70" d="M 1159 525 
L 1159 -1331 
L 581 -1331 
L 581 3500 
L 1159 3500 
L 1159 2969 
Q 1341 3281 1617 3432 
Q 1894 3584 2278 3584 
Q 2916 3584 3314 3078 
Q 3713 2572 3713 1747 
Q 3713 922 3314 415 
Q 2916 -91 2278 -91 
Q 1894 -91 1617 61 
Q 1341 213 1159 525 
z
M 3116 1747 
Q 3116 2381 2855 2742 
Q 2594 3103 2138 3103 
Q 1681 3103 1420 2742 
Q 1159 2381 1159 1747 
Q 1159 1113 1420 752 
Q 1681 391 2138 391 
Q 2594 391 2855 752 
Q 3116 1113 3116 1747 
z
" transform="scale(0.015625)"/>
       </defs>
       <use xlink:href="#DejaVuSans-70"/>
       <use xlink:href="#DejaVuSans-72" transform="translate(63.476562 0)"/>
       <use xlink:href="#DejaVuSans-6f" transform="translate(102.339844 0)"/>
       <use xlink:href="#DejaVuSans-70" transform="translate(163.521484 0)"/>
       <use xlink:href="#DejaVuSans-6f" transform="translate(226.998047 0)"/>
       <use xlink:href="#DejaVuSans-73" transform="translate(288.179688 0)"/>
       <use xlink:href="#DejaVuSans-61" transform="translate(340.279297 0)"/>
       <use xlink:href="#DejaVuSans-6c" transform="translate(401.558594 0)"/>
      </g>
     </g>
    </g>
    <g id="xtick_7">
     <g id="line2d_35">
      <g>
       <use xlink:href="#m49f5fa1186" x="188.544951" y="527.189157" style="stroke: #000000; stroke-width: 0.8"/>
      </g>
     </g>
     <g id="text_23">
      <!-- transport_row -->
      <g transform="translate(156.315983 562.593105) rotate(-18) scale(0.1 -0.1)">
       <defs>
        <path id="DejaVuSans-5f" d="M 3263 -1063 
L 3263 -1509 
L -63 -1509 
L -63 -1063 
L 3263 -1063 
z
" transform="scale(0.015625)"/>
        <path id="DejaVuSans-77" d="M 269 3500 
L 844 3500 
L 1563 769 
L 2278 3500 
L 2956 3500 
L 3675 769 
L 4391 3500 
L 4966 3500 
L 4050 0 
L 3372 0 
L 2619 2869 
L 1863 0 
L 1184 0 
L 269 3500 
z
" transform="scale(0.015625)"/>
       </defs>
       <use xlink:href="#DejaVuSans-74"/>
       <use xlink:href="#DejaVuSans-72" transform="translate(39.208984 0)"/>
       <use xlink:href="#DejaVuSans-61" transform="translate(80.322266 0)"/>
       <use xlink:href="#DejaVuSans-6e" transform="translate(141.601562 0)"/>
       <use xlink:href="#DejaVuSans-73" transform="translate(204.980469 0)"/>
       <use xlink:href="#DejaVuSans-70" transform="translate(257.080078 0)"/>
       <use xlink:href="#DejaVuSans-6f" transform="translate(320.556641 0)"/>
       <use xlink:href="#DejaVuSans-72" transform="translate(381.738281 0)"/>
       <use xlink:href="#DejaVuSans-74" transform="translate(422.851562 0)"/>
       <use xlink:href="#DejaVuSans-5f" transform="translate(462.060547 0)"/>
       <use xlink:href="#DejaVuSans-72" transform="translate(512.060547 0)"/>
       <use xlink:href="#DejaVuSans-6f" transform="translate(550.923828 0)"/>
       <use xlink:href="#DejaVuSans-77" transform="translate(612.105469 0)"/>
      </g>
     </g>
    </g>
    <g id="xtick_8">
     <g id="line2d_36">
      <g>
       <use xlink:href="#m49f5fa1186" x="276.827789" y="527.189157" style="stroke: #000000; stroke-width: 0.8"/>
      </g>
     </g>
     <g id="text_24">
      <!-- reveal -->
      <g transform="translate(262.930933 551.000539) rotate(-18) scale(0.1 -0.1)">
       <use xlink:href="#DejaVuSans-72"/>
       <use xlink:href="#DejaVuSans-65" transform="translate(38.863281 0)"/>
       <use xlink:href="#DejaVuSans-76" transform="translate(100.386719 0)"/>
       <use xlink:href="#DejaVuSans-65" transform="translate(159.566406 0)"/>
       <use xlink:href="#DejaVuSans-61" transform="translate(221.089844 0)"/>
       <use xlink:href="#DejaVuSans-6c" transform="translate(282.369141 0)"/>
      </g>
     </g>
    </g>
    <g id="xtick_9">
     <g id="line2d_37">
      <g>
       <use xlink:href="#m49f5fa1186" x="365.110626" y="527.189157" style="stroke: #000000; stroke-width: 0.8"/>
      </g>
     </g>
     <g id="text_25">
      <!-- column_exclusivity -->
      <g transform="translate(320.901938 570.670436) rotate(-18) scale(0.1 -0.1)">
       <defs>
        <path id="DejaVuSans-6d" d="M 3328 2828 
Q 3544 3216 3844 3400 
Q 4144 3584 4550 3584 
Q 5097 3584 5394 3201 
Q 5691 2819 5691 2113 
L 5691 0 
L 5113 0 
L 5113 2094 
Q 5113 2597 4934 2840 
Q 4756 3084 4391 3084 
Q 3944 3084 3684 2787 
Q 3425 2491 3425 1978 
L 3425 0 
L 2847 0 
L 2847 2094 
Q 2847 2600 2669 2842 
Q 2491 3084 2119 3084 
Q 1678 3084 1418 2786 
Q 1159 2488 1159 1978 
L 1159 0 
L 581 0 
L 581 3500 
L 1159 3500 
L 1159 2956 
Q 1356 3278 1631 3431 
Q 1906 3584 2284 3584 
Q 2666 3584 2933 3390 
Q 3200 3197 3328 2828 
z
" transform="scale(0.015625)"/>
       </defs>
       <use xlink:href="#DejaVuSans-63"/>
       <use xlink:href="#DejaVuSans-6f" transform="translate(54.980469 0)"/>
       <use xlink:href="#DejaVuSans-6c" transform="translate(116.162109 0)"/>
       <use xlink:href="#DejaVuSans-75" transform="translate(143.945312 0)"/>
       <use xlink:href="#DejaVuSans-6d" transform="translate(207.324219 0)"/>
       <use xlink:href="#DejaVuSans-6e" transform="translate(304.736328 0)"/>
       <use xlink:href="#DejaVuSans-5f" transform="translate(368.115234 0)"/>
       <use xlink:href="#DejaVuSans-65" transform="translate(418.115234 0)"/>
       <use xlink:href="#DejaVuSans-78" transform="translate(477.888672 0)"/>
       <use xlink:href="#DejaVuSans-63" transform="translate(535.318359 0)"/>
       <use xlink:href="#DejaVuSans-6c" transform="translate(590.298828 0)"/>
       <use xlink:href="#DejaVuSans-75" transform="translate(618.082031 0)"/>
       <use xlink:href="#DejaVuSans-73" transform="translate(681.460938 0)"/>
       <use xlink:href="#DejaVuSans-69" transform="translate(733.560547 0)"/>
       <use xlink:href="#DejaVuSans-76" transform="translate(761.34375 0)"/>
       <use xlink:href="#DejaVuSans-69" transform="translate(820.523438 0)"/>
       <use xlink:href="#DejaVuSans-74" transform="translate(848.306641 0)"/>
       <use xlink:href="#DejaVuSans-79" transform="translate(887.515625 0)"/>
      </g>
     </g>
    </g>
   </g>
   <g id="matplotlib.axis_6">
    <g id="ytick_15">
     <g id="line2d_38">
      <path d="M 48.17524 527.189157 
L 417.1975 527.189157 
" clip-path="url(#p3a9c712c07)" style="fill: none; stroke: #b0b0b0; stroke-opacity: 0.2; stroke-width: 0.8; stroke-linecap: square"/>
     </g>
     <g id="line2d_39">
      <g>
       <use xlink:href="#mf94d9952f7" x="48.17524" y="527.189157" style="stroke: #000000; stroke-width: 0.8"/>
      </g>
     </g>
     <g id="text_26">
      <!-- 0.00 -->
      <g transform="translate(18.909615 530.988376) scale(0.1 -0.1)">
       <defs>
        <path id="DejaVuSans-2e" d="M 684 794 
L 1344 794 
L 1344 0 
L 684 0 
L 684 794 
z
" transform="scale(0.015625)"/>
       </defs>
       <use xlink:href="#DejaVuSans-30"/>
       <use xlink:href="#DejaVuSans-2e" transform="translate(63.623047 0)"/>
       <use xlink:href="#DejaVuSans-30" transform="translate(95.410156 0)"/>
       <use xlink:href="#DejaVuSans-30" transform="translate(159.033203 0)"/>
      </g>
     </g>
    </g>
    <g id="ytick_16">
     <g id="line2d_40">
      <path d="M 48.17524 500.300499 
L 417.1975 500.300499 
" clip-path="url(#p3a9c712c07)" style="fill: none; stroke: #b0b0b0; stroke-opacity: 0.2; stroke-width: 0.8; stroke-linecap: square"/>
     </g>
     <g id="line2d_41">
      <g>
       <use xlink:href="#mf94d9952f7" x="48.17524" y="500.300499" style="stroke: #000000; stroke-width: 0.8"/>
      </g>
     </g>
     <g id="text_27">
      <!-- 0.25 -->
      <g transform="translate(18.909615 504.099718) scale(0.1 -0.1)">
       <use xlink:href="#DejaVuSans-30"/>
       <use xlink:href="#DejaVuSans-2e" transform="translate(63.623047 0)"/>
       <use xlink:href="#DejaVuSans-32" transform="translate(95.410156 0)"/>
       <use xlink:href="#DejaVuSans-35" transform="translate(159.033203 0)"/>
      </g>
     </g>
    </g>
    <g id="ytick_17">
     <g id="line2d_42">
      <path d="M 48.17524 473.411841 
L 417.1975 473.411841 
" clip-path="url(#p3a9c712c07)" style="fill: none; stroke: #b0b0b0; stroke-opacity: 0.2; stroke-width: 0.8; stroke-linecap: square"/>
     </g>
     <g id="line2d_43">
      <g>
       <use xlink:href="#mf94d9952f7" x="48.17524" y="473.411841" style="stroke: #000000; stroke-width: 0.8"/>
      </g>
     </g>
     <g id="text_28">
      <!-- 0.50 -->
      <g transform="translate(18.909615 477.211059) scale(0.1 -0.1)">
       <use xlink:href="#DejaVuSans-30"/>
       <use xlink:href="#DejaVuSans-2e" transform="translate(63.623047 0)"/>
       <use xlink:href="#DejaVuSans-35" transform="translate(95.410156 0)"/>
       <use xlink:href="#DejaVuSans-30" transform="translate(159.033203 0)"/>
      </g>
     </g>
    </g>
    <g id="ytick_18">
     <g id="line2d_44">
      <path d="M 48.17524 446.523182 
L 417.1975 446.523182 
" clip-path="url(#p3a9c712c07)" style="fill: none; stroke: #b0b0b0; stroke-opacity: 0.2; stroke-width: 0.8; stroke-linecap: square"/>
     </g>
     <g id="line2d_45">
      <g>
       <use xlink:href="#mf94d9952f7" x="48.17524" y="446.523182" style="stroke: #000000; stroke-width: 0.8"/>
      </g>
     </g>
     <g id="text_29">
      <!-- 0.75 -->
      <g transform="translate(18.909615 450.322401) scale(0.1 -0.1)">
       <use xlink:href="#DejaVuSans-30"/>
       <use xlink:href="#DejaVuSans-2e" transform="translate(63.623047 0)"/>
       <use xlink:href="#DejaVuSans-37" transform="translate(95.410156 0)"/>
       <use xlink:href="#DejaVuSans-35" transform="translate(159.033203 0)"/>
      </g>
     </g>
    </g>
    <g id="ytick_19">
     <g id="line2d_46">
      <path d="M 48.17524 419.634524 
L 417.1975 419.634524 
" clip-path="url(#p3a9c712c07)" style="fill: none; stroke: #b0b0b0; stroke-opacity: 0.2; stroke-width: 0.8; stroke-linecap: square"/>
     </g>
     <g id="line2d_47">
      <g>
       <use xlink:href="#mf94d9952f7" x="48.17524" y="419.634524" style="stroke: #000000; stroke-width: 0.8"/>
      </g>
     </g>
     <g id="text_30">
      <!-- 1.00 -->
      <g transform="translate(18.909615 423.433743) scale(0.1 -0.1)">
       <use xlink:href="#DejaVuSans-31"/>
       <use xlink:href="#DejaVuSans-2e" transform="translate(63.623047 0)"/>
       <use xlink:href="#DejaVuSans-30" transform="translate(95.410156 0)"/>
       <use xlink:href="#DejaVuSans-30" transform="translate(159.033203 0)"/>
      </g>
     </g>
    </g>
    <g id="ytick_20">
     <g id="line2d_48">
      <path d="M 48.17524 392.745866 
L 417.1975 392.745866 
" clip-path="url(#p3a9c712c07)" style="fill: none; stroke: #b0b0b0; stroke-opacity: 0.2; stroke-width: 0.8; stroke-linecap: square"/>
     </g>
     <g id="line2d_49">
      <g>
       <use xlink:href="#mf94d9952f7" x="48.17524" y="392.745866" style="stroke: #000000; stroke-width: 0.8"/>
      </g>
     </g>
     <g id="text_31">
      <!-- 1.25 -->
      <g transform="translate(18.909615 396.545085) scale(0.1 -0.1)">
       <use xlink:href="#DejaVuSans-31"/>
       <use xlink:href="#DejaVuSans-2e" transform="translate(63.623047 0)"/>
       <use xlink:href="#DejaVuSans-32" transform="translate(95.410156 0)"/>
       <use xlink:href="#DejaVuSans-35" transform="translate(159.033203 0)"/>
      </g>
     </g>
    </g>
    <g id="ytick_21">
     <g id="line2d_50">
      <path d="M 48.17524 365.857208 
L 417.1975 365.857208 
" clip-path="url(#p3a9c712c07)" style="fill: none; stroke: #b0b0b0; stroke-opacity: 0.2; stroke-width: 0.8; stroke-linecap: square"/>
     </g>
     <g id="line2d_51">
      <g>
       <use xlink:href="#mf94d9952f7" x="48.17524" y="365.857208" style="stroke: #000000; stroke-width: 0.8"/>
      </g>
     </g>
     <g id="text_32">
      <!-- 1.50 -->
      <g transform="translate(18.909615 369.656426) scale(0.1 -0.1)">
       <use xlink:href="#DejaVuSans-31"/>
       <use xlink:href="#DejaVuSans-2e" transform="translate(63.623047 0)"/>
       <use xlink:href="#DejaVuSans-35" transform="translate(95.410156 0)"/>
       <use xlink:href="#DejaVuSans-30" transform="translate(159.033203 0)"/>
      </g>
     </g>
    </g>
    <g id="ytick_22">
     <g id="line2d_52">
      <path d="M 48.17524 338.968549 
L 417.1975 338.968549 
" clip-path="url(#p3a9c712c07)" style="fill: none; stroke: #b0b0b0; stroke-opacity: 0.2; stroke-width: 0.8; stroke-linecap: square"/>
     </g>
     <g id="line2d_53">
      <g>
       <use xlink:href="#mf94d9952f7" x="48.17524" y="338.968549" style="stroke: #000000; stroke-width: 0.8"/>
      </g>
     </g>
     <g id="text_33">
      <!-- 1.75 -->
      <g transform="translate(18.909615 342.767768) scale(0.1 -0.1)">
       <use xlink:href="#DejaVuSans-31"/>
       <use xlink:href="#DejaVuSans-2e" transform="translate(63.623047 0)"/>
       <use xlink:href="#DejaVuSans-37" transform="translate(95.410156 0)"/>
       <use xlink:href="#DejaVuSans-35" transform="translate(159.033203 0)"/>
      </g>
     </g>
    </g>
    <g id="ytick_23">
     <g id="line2d_54">
      <path d="M 48.17524 312.079891 
L 417.1975 312.079891 
" clip-path="url(#p3a9c712c07)" style="fill: none; stroke: #b0b0b0; stroke-opacity: 0.2; stroke-width: 0.8; stroke-linecap: square"/>
     </g>
     <g id="line2d_55">
      <g>
       <use xlink:href="#mf94d9952f7" x="48.17524" y="312.079891" style="stroke: #000000; stroke-width: 0.8"/>
      </g>
     </g>
     <g id="text_34">
      <!-- 2.00 -->
      <g transform="translate(18.909615 315.87911) scale(0.1 -0.1)">
       <use xlink:href="#DejaVuSans-32"/>
       <use xlink:href="#DejaVuSans-2e" transform="translate(63.623047 0)"/>
       <use xlink:href="#DejaVuSans-30" transform="translate(95.410156 0)"/>
       <use xlink:href="#DejaVuSans-30" transform="translate(159.033203 0)"/>
      </g>
     </g>
    </g>
   </g>
   <g id="patch_18">
    <path d="M 64.948979 527.189157 
L 135.575249 527.189157 
L 135.575249 361.180382 
L 64.948979 361.180382 
z
" clip-path="url(#p3a9c712c07)" style="fill: #f28e2b"/>
   </g>
   <g id="patch_19">
    <path d="M 153.231816 527.189157 
L 223.858086 527.189157 
L 223.858086 311.160666 
L 153.231816 311.160666 
z
" clip-path="url(#p3a9c712c07)" style="fill: #f28e2b"/>
   </g>
   <g id="patch_20">
    <path d="M 241.514654 527.189157 
L 312.140924 527.189157 
L 312.140924 452.147236 
L 241.514654 452.147236 
z
" clip-path="url(#p3a9c712c07)" style="fill: #f28e2b"/>
   </g>
   <g id="patch_21">
    <path d="M 329.797491 527.189157 
L 400.423761 527.189157 
L 400.423761 527.185987 
L 329.797491 527.185987 
z
" clip-path="url(#p3a9c712c07)" style="fill: #f28e2b"/>
   </g>
   <g id="patch_22">
    <path d="M 48.17524 527.189157 
L 48.17524 300.359241 
" style="fill: none; stroke: #000000; stroke-width: 0.8; stroke-linejoin: miter; stroke-linecap: square"/>
   </g>
   <g id="patch_23">
    <path d="M 417.1975 527.189157 
L 417.1975 300.359241 
" style="fill: none; stroke: #000000; stroke-width: 0.8; stroke-linejoin: miter; stroke-linecap: square"/>
   </g>
   <g id="patch_24">
    <path d="M 48.17524 527.189157 
L 417.1975 527.189157 
" style="fill: none; stroke: #000000; stroke-width: 0.8; stroke-linejoin: miter; stroke-linecap: square"/>
   </g>
   <g id="patch_25">
    <path d="M 48.17524 300.359241 
L 417.1975 300.359241 
" style="fill: none; stroke: #000000; stroke-width: 0.8; stroke-linejoin: miter; stroke-linecap: square"/>
   </g>
   <g id="text_35">
    <!-- C  Real-batch finite objectives -->
    <g transform="translate(143.011683 294.359241) scale(0.12 -0.12)">
     <defs>
      <path id="DejaVuSans-2d" d="M 313 2009 
L 1997 2009 
L 1997 1497 
L 313 1497 
L 313 2009 
z
" transform="scale(0.015625)"/>
      <path id="DejaVuSans-68" d="M 3513 2113 
L 3513 0 
L 2938 0 
L 2938 2094 
Q 2938 2591 2744 2837 
Q 2550 3084 2163 3084 
Q 1697 3084 1428 2787 
Q 1159 2491 1159 1978 
L 1159 0 
L 581 0 
L 581 4863 
L 1159 4863 
L 1159 2956 
Q 1366 3272 1645 3428 
Q 1925 3584 2291 3584 
Q 2894 3584 3203 3211 
Q 3513 2838 3513 2113 
z
" transform="scale(0.015625)"/>
      <path id="DejaVuSans-6a" d="M 603 3500 
L 1178 3500 
L 1178 -63 
Q 1178 -731 923 -1031 
Q 669 -1331 103 -1331 
L -116 -1331 
L -116 -844 
L 38 -844 
Q 366 -844 484 -692 
Q 603 -541 603 -63 
L 603 3500 
z
M 603 4863 
L 1178 4863 
L 1178 4134 
L 603 4134 
L 603 4863 
z
" transform="scale(0.015625)"/>
     </defs>
     <use xlink:href="#DejaVuSans-43"/>
     <use xlink:href="#DejaVuSans-20" transform="translate(69.824219 0)"/>
     <use xlink:href="#DejaVuSans-20" transform="translate(101.611328 0)"/>
     <use xlink:href="#DejaVuSans-52" transform="translate(133.398438 0)"/>
     <use xlink:href="#DejaVuSans-65" transform="translate(198.380859 0)"/>
     <use xlink:href="#DejaVuSans-61" transform="translate(259.904297 0)"/>
     <use xlink:href="#DejaVuSans-6c" transform="translate(321.183594 0)"/>
     <use xlink:href="#DejaVuSans-2d" transform="translate(348.966797 0)"/>
     <use xlink:href="#DejaVuSans-62" transform="translate(385.050781 0)"/>
     <use xlink:href="#DejaVuSans-61" transform="translate(448.527344 0)"/>
     <use xlink:href="#DejaVuSans-74" transform="translate(509.806641 0)"/>
     <use xlink:href="#DejaVuSans-63" transform="translate(549.015625 0)"/>
     <use xlink:href="#DejaVuSans-68" transform="translate(603.996094 0)"/>
     <use xlink:href="#DejaVuSans-20" transform="translate(667.375 0)"/>
     <use xlink:href="#DejaVuSans-66" transform="translate(699.162109 0)"/>
     <use xlink:href="#DejaVuSans-69" transform="translate(734.367188 0)"/>
     <use xlink:href="#DejaVuSans-6e" transform="translate(762.150391 0)"/>
     <use xlink:href="#DejaVuSans-69" transform="translate(825.529297 0)"/>
     <use xlink:href="#DejaVuSans-74" transform="translate(853.3125 0)"/>
     <use xlink:href="#DejaVuSans-65" transform="translate(892.521484 0)"/>
     <use xlink:href="#DejaVuSans-20" transform="translate(954.044922 0)"/>
     <use xlink:href="#DejaVuSans-6f" transform="translate(985.832031 0)"/>
     <use xlink:href="#DejaVuSans-62" transform="translate(1047.013672 0)"/>
     <use xlink:href="#DejaVuSans-6a" transform="translate(1110.490234 0)"/>
     <use xlink:href="#DejaVuSans-65" transform="translate(1138.273438 0)"/>
     <use xlink:href="#DejaVuSans-63" transform="translate(1199.796875 0)"/>
     <use xlink:href="#DejaVuSans-74" transform="translate(1254.777344 0)"/>
     <use xlink:href="#DejaVuSans-69" transform="translate(1293.986328 0)"/>
     <use xlink:href="#DejaVuSans-76" transform="translate(1321.769531 0)"/>
     <use xlink:href="#DejaVuSans-65" transform="translate(1380.949219 0)"/>
     <use xlink:href="#DejaVuSans-73" transform="translate(1442.472656 0)"/>
    </g>
   </g>
  </g>
  <g id="axes_4">
   <g id="patch_26">
    <path d="M 455.9775 527.189157 
L 824.99976 527.189157 
L 824.99976 300.359241 
L 455.9775 300.359241 
z
" style="fill: #ffffff"/>
   </g>
   <g id="matplotlib.axis_7">
    <g id="xtick_10">
     <g id="line2d_56">
      <g>
       <use xlink:href="#m49f5fa1186" x="508.064374" y="527.189157" style="stroke: #000000; stroke-width: 0.8"/>
      </g>
     </g>
     <g id="text_36">
      <!-- proposal_rotation -->
      <g transform="translate(467.434779 568.3446) rotate(-18) scale(0.1 -0.1)">
       <use xlink:href="#DejaVuSans-70"/>
       <use xlink:href="#DejaVuSans-72" transform="translate(63.476562 0)"/>
       <use xlink:href="#DejaVuSans-6f" transform="translate(102.339844 0)"/>
       <use xlink:href="#DejaVuSans-70" transform="translate(163.521484 0)"/>
       <use xlink:href="#DejaVuSans-6f" transform="translate(226.998047 0)"/>
       <use xlink:href="#DejaVuSans-73" transform="translate(288.179688 0)"/>
       <use xlink:href="#DejaVuSans-61" transform="translate(340.279297 0)"/>
       <use xlink:href="#DejaVuSans-6c" transform="translate(401.558594 0)"/>
       <use xlink:href="#DejaVuSans-5f" transform="translate(429.341797 0)"/>
       <use xlink:href="#DejaVuSans-72" transform="translate(479.341797 0)"/>
       <use xlink:href="#DejaVuSans-6f" transform="translate(518.205078 0)"/>
       <use xlink:href="#DejaVuSans-74" transform="translate(579.386719 0)"/>
       <use xlink:href="#DejaVuSans-61" transform="translate(618.595703 0)"/>
       <use xlink:href="#DejaVuSans-74" transform="translate(679.875 0)"/>
       <use xlink:href="#DejaVuSans-69" transform="translate(719.083984 0)"/>
       <use xlink:href="#DejaVuSans-6f" transform="translate(746.867188 0)"/>
       <use xlink:href="#DejaVuSans-6e" transform="translate(808.048828 0)"/>
      </g>
     </g>
    </g>
    <g id="xtick_11">
     <g id="line2d_57">
      <g>
       <use xlink:href="#m49f5fa1186" x="596.347211" y="527.189157" style="stroke: #000000; stroke-width: 0.8"/>
      </g>
     </g>
     <g id="text_37">
      <!-- transport_rotation -->
      <g transform="translate(554.163234 569.3547) rotate(-18) scale(0.1 -0.1)">
       <use xlink:href="#DejaVuSans-74"/>
       <use xlink:href="#DejaVuSans-72" transform="translate(39.208984 0)"/>
       <use xlink:href="#DejaVuSans-61" transform="translate(80.322266 0)"/>
       <use xlink:href="#DejaVuSans-6e" transform="translate(141.601562 0)"/>
       <use xlink:href="#DejaVuSans-73" transform="translate(204.980469 0)"/>
       <use xlink:href="#DejaVuSans-70" transform="translate(257.080078 0)"/>
       <use xlink:href="#DejaVuSans-6f" transform="translate(320.556641 0)"/>
       <use xlink:href="#DejaVuSans-72" transform="translate(381.738281 0)"/>
       <use xlink:href="#DejaVuSans-74" transform="translate(422.851562 0)"/>
       <use xlink:href="#DejaVuSans-5f" transform="translate(462.060547 0)"/>
       <use xlink:href="#DejaVuSans-72" transform="translate(512.060547 0)"/>
       <use xlink:href="#DejaVuSans-6f" transform="translate(550.923828 0)"/>
       <use xlink:href="#DejaVuSans-74" transform="translate(612.105469 0)"/>
       <use xlink:href="#DejaVuSans-61" transform="translate(651.314453 0)"/>
       <use xlink:href="#DejaVuSans-74" transform="translate(712.59375 0)"/>
       <use xlink:href="#DejaVuSans-69" transform="translate(751.802734 0)"/>
       <use xlink:href="#DejaVuSans-6f" transform="translate(779.585938 0)"/>
       <use xlink:href="#DejaVuSans-6e" transform="translate(840.767578 0)"/>
      </g>
     </g>
    </g>
    <g id="xtick_12">
     <g id="line2d_58">
      <g>
       <use xlink:href="#m49f5fa1186" x="684.630049" y="527.189157" style="stroke: #000000; stroke-width: 0.8"/>
      </g>
     </g>
     <g id="text_38">
      <!-- axis_rotation -->
      <g transform="translate(654.890794 561.267628) rotate(-18) scale(0.1 -0.1)">
       <use xlink:href="#DejaVuSans-61"/>
       <use xlink:href="#DejaVuSans-78" transform="translate(61.279297 0)"/>
       <use xlink:href="#DejaVuSans-69" transform="translate(120.458984 0)"/>
       <use xlink:href="#DejaVuSans-73" transform="translate(148.242188 0)"/>
       <use xlink:href="#DejaVuSans-5f" transform="translate(200.341797 0)"/>
       <use xlink:href="#DejaVuSans-72" transform="translate(250.341797 0)"/>
       <use xlink:href="#DejaVuSans-6f" transform="translate(289.205078 0)"/>
       <use xlink:href="#DejaVuSans-74" transform="translate(350.386719 0)"/>
       <use xlink:href="#DejaVuSans-61" transform="translate(389.595703 0)"/>
       <use xlink:href="#DejaVuSans-74" transform="translate(450.875 0)"/>
       <use xlink:href="#DejaVuSans-69" transform="translate(490.083984 0)"/>
       <use xlink:href="#DejaVuSans-6f" transform="translate(517.867188 0)"/>
       <use xlink:href="#DejaVuSans-6e" transform="translate(579.048828 0)"/>
      </g>
     </g>
    </g>
    <g id="xtick_13">
     <g id="line2d_59">
      <g>
       <use xlink:href="#m49f5fa1186" x="772.912886" y="527.189157" style="stroke: #000000; stroke-width: 0.8"/>
      </g>
     </g>
     <g id="text_39">
      <!-- batch_permutation -->
      <g transform="translate(728.570456 570.757347) rotate(-18) scale(0.1 -0.1)">
       <use xlink:href="#DejaVuSans-62"/>
       <use xlink:href="#DejaVuSans-61" transform="translate(63.476562 0)"/>
       <use xlink:href="#DejaVuSans-74" transform="translate(124.755859 0)"/>
       <use xlink:href="#DejaVuSans-63" transform="translate(163.964844 0)"/>
       <use xlink:href="#DejaVuSans-68" transform="translate(218.945312 0)"/>
       <use xlink:href="#DejaVuSans-5f" transform="translate(282.324219 0)"/>
       <use xlink:href="#DejaVuSans-70" transform="translate(332.324219 0)"/>
       <use xlink:href="#DejaVuSans-65" transform="translate(395.800781 0)"/>
       <use xlink:href="#DejaVuSans-72" transform="translate(457.324219 0)"/>
       <use xlink:href="#DejaVuSans-6d" transform="translate(496.6875 0)"/>
       <use xlink:href="#DejaVuSans-75" transform="translate(594.099609 0)"/>
       <use xlink:href="#DejaVuSans-74" transform="translate(657.478516 0)"/>
       <use xlink:href="#DejaVuSans-61" transform="translate(696.6875 0)"/>
       <use xlink:href="#DejaVuSans-74" transform="translate(757.966797 0)"/>
       <use xlink:href="#DejaVuSans-69" transform="translate(797.175781 0)"/>
       <use xlink:href="#DejaVuSans-6f" transform="translate(824.958984 0)"/>
       <use xlink:href="#DejaVuSans-6e" transform="translate(886.140625 0)"/>
      </g>
     </g>
    </g>
   </g>
   <g id="matplotlib.axis_8">
    <g id="ytick_24">
     <g id="line2d_60">
      <path d="M 455.9775 527.189157 
L 824.99976 527.189157 
" clip-path="url(#pca2b0a819b)" style="fill: none; stroke: #b0b0b0; stroke-opacity: 0.2; stroke-width: 0.8; stroke-linecap: square"/>
     </g>
     <g id="line2d_61">
      <g>
       <use xlink:href="#mf94d9952f7" x="455.9775" y="527.189157" style="stroke: #000000; stroke-width: 0.8"/>
      </g>
     </g>
     <g id="text_40">
      <!-- $\mathdefault{0}$ -->
      <g transform="translate(442.5775 530.988376) scale(0.1 -0.1)">
       <use xlink:href="#DejaVuSans-30" transform="translate(0 0.78125)"/>
      </g>
     </g>
    </g>
    <g id="ytick_25">
     <g id="line2d_62">
      <path d="M 455.9775 484.236101 
L 824.99976 484.236101 
" clip-path="url(#pca2b0a819b)" style="fill: none; stroke: #b0b0b0; stroke-opacity: 0.2; stroke-width: 0.8; stroke-linecap: square"/>
     </g>
     <g id="line2d_63">
      <g>
       <use xlink:href="#mf94d9952f7" x="455.9775" y="484.236101" style="stroke: #000000; stroke-width: 0.8"/>
      </g>
     </g>
     <g id="text_41">
      <!-- $\mathdefault{10^{-9}}$ -->
      <g transform="translate(425.4775 488.03532) scale(0.1 -0.1)">
       <defs>
        <path id="DejaVuSans-2212" d="M 678 2272 
L 4684 2272 
L 4684 1741 
L 678 1741 
L 678 2272 
z
" transform="scale(0.015625)"/>
        <path id="DejaVuSans-39" d="M 703 97 
L 703 672 
Q 941 559 1184 500 
Q 1428 441 1663 441 
Q 2288 441 2617 861 
Q 2947 1281 2994 2138 
Q 2813 1869 2534 1725 
Q 2256 1581 1919 1581 
Q 1219 1581 811 2004 
Q 403 2428 403 3163 
Q 403 3881 828 4315 
Q 1253 4750 1959 4750 
Q 2769 4750 3195 4129 
Q 3622 3509 3622 2328 
Q 3622 1225 3098 567 
Q 2575 -91 1691 -91 
Q 1453 -91 1209 -44 
Q 966 3 703 97 
z
M 1959 2075 
Q 2384 2075 2632 2365 
Q 2881 2656 2881 3163 
Q 2881 3666 2632 3958 
Q 2384 4250 1959 4250 
Q 1534 4250 1286 3958 
Q 1038 3666 1038 3163 
Q 1038 2656 1286 2365 
Q 1534 2075 1959 2075 
z
" transform="scale(0.015625)"/>
       </defs>
       <use xlink:href="#DejaVuSans-31" transform="translate(0 0.765625)"/>
       <use xlink:href="#DejaVuSans-30" transform="translate(63.623047 0.765625)"/>
       <use xlink:href="#DejaVuSans-2212" transform="translate(128.203125 39.046875) scale(0.7)"/>
       <use xlink:href="#DejaVuSans-39" transform="translate(186.855469 39.046875) scale(0.7)"/>
      </g>
     </g>
    </g>
    <g id="ytick_26">
     <g id="line2d_64">
      <path d="M 455.9775 445.578351 
L 824.99976 445.578351 
" clip-path="url(#pca2b0a819b)" style="fill: none; stroke: #b0b0b0; stroke-opacity: 0.2; stroke-width: 0.8; stroke-linecap: square"/>
     </g>
     <g id="line2d_65">
      <g>
       <use xlink:href="#mf94d9952f7" x="455.9775" y="445.578351" style="stroke: #000000; stroke-width: 0.8"/>
      </g>
     </g>
     <g id="text_42">
      <!-- $\mathdefault{10^{-8}}$ -->
      <g transform="translate(425.4775 449.37757) scale(0.1 -0.1)">
       <use xlink:href="#DejaVuSans-31" transform="translate(0 0.765625)"/>
       <use xlink:href="#DejaVuSans-30" transform="translate(63.623047 0.765625)"/>
       <use xlink:href="#DejaVuSans-2212" transform="translate(128.203125 39.046875) scale(0.7)"/>
       <use xlink:href="#DejaVuSans-38" transform="translate(186.855469 39.046875) scale(0.7)"/>
      </g>
     </g>
    </g>
    <g id="ytick_27">
     <g id="line2d_66">
      <path d="M 455.9775 406.920601 
L 824.99976 406.920601 
" clip-path="url(#pca2b0a819b)" style="fill: none; stroke: #b0b0b0; stroke-opacity: 0.2; stroke-width: 0.8; stroke-linecap: square"/>
     </g>
     <g id="line2d_67">
      <g>
       <use xlink:href="#mf94d9952f7" x="455.9775" y="406.920601" style="stroke: #000000; stroke-width: 0.8"/>
      </g>
     </g>
     <g id="text_43">
      <!-- $\mathdefault{10^{-7}}$ -->
      <g transform="translate(425.4775 410.719819) scale(0.1 -0.1)">
       <use xlink:href="#DejaVuSans-31" transform="translate(0 0.684375)"/>
       <use xlink:href="#DejaVuSans-30" transform="translate(63.623047 0.684375)"/>
       <use xlink:href="#DejaVuSans-2212" transform="translate(128.203125 38.965625) scale(0.7)"/>
       <use xlink:href="#DejaVuSans-37" transform="translate(186.855469 38.965625) scale(0.7)"/>
      </g>
     </g>
    </g>
    <g id="ytick_28">
     <g id="line2d_68">
      <path d="M 455.9775 368.26285 
L 824.99976 368.26285 
" clip-path="url(#pca2b0a819b)" style="fill: none; stroke: #b0b0b0; stroke-opacity: 0.2; stroke-width: 0.8; stroke-linecap: square"/>
     </g>
     <g id="line2d_69">
      <g>
       <use xlink:href="#mf94d9952f7" x="455.9775" y="368.26285" style="stroke: #000000; stroke-width: 0.8"/>
      </g>
     </g>
     <g id="text_44">
      <!-- $\mathdefault{10^{-6}}$ -->
      <g transform="translate(425.4775 372.062069) scale(0.1 -0.1)">
       <use xlink:href="#DejaVuSans-31" transform="translate(0 0.765625)"/>
       <use xlink:href="#DejaVuSans-30" transform="translate(63.623047 0.765625)"/>
       <use xlink:href="#DejaVuSans-2212" transform="translate(128.203125 39.046875) scale(0.7)"/>
       <use xlink:href="#DejaVuSans-36" transform="translate(186.855469 39.046875) scale(0.7)"/>
      </g>
     </g>
    </g>
    <g id="ytick_29">
     <g id="line2d_70">
      <path d="M 455.9775 329.6051 
L 824.99976 329.6051 
" clip-path="url(#pca2b0a819b)" style="fill: none; stroke: #b0b0b0; stroke-opacity: 0.2; stroke-width: 0.8; stroke-linecap: square"/>
     </g>
     <g id="line2d_71">
      <g>
       <use xlink:href="#mf94d9952f7" x="455.9775" y="329.6051" style="stroke: #000000; stroke-width: 0.8"/>
      </g>
     </g>
     <g id="text_45">
      <!-- $\mathdefault{10^{-5}}$ -->
      <g transform="translate(425.4775 333.404319) scale(0.1 -0.1)">
       <use xlink:href="#DejaVuSans-31" transform="translate(0 0.684375)"/>
       <use xlink:href="#DejaVuSans-30" transform="translate(63.623047 0.684375)"/>
       <use xlink:href="#DejaVuSans-2212" transform="translate(128.203125 38.965625) scale(0.7)"/>
       <use xlink:href="#DejaVuSans-35" transform="translate(186.855469 38.965625) scale(0.7)"/>
      </g>
     </g>
    </g>
   </g>
   <g id="patch_27">
    <path d="M 472.751239 527.189157 
L 543.377509 527.189157 
L 543.377509 373.203693 
L 472.751239 373.203693 
z
" clip-path="url(#pca2b0a819b)" style="fill: #e15759"/>
   </g>
   <g id="patch_28">
    <path d="M 561.034076 527.189157 
L 631.660346 527.189157 
L 631.660346 392.333481 
L 561.034076 392.333481 
z
" clip-path="url(#pca2b0a819b)" style="fill: #e15759"/>
   </g>
   <g id="patch_29">
    <path d="M 649.316914 527.189157 
L 719.943184 527.189157 
L 719.943184 397.163332 
L 649.316914 397.163332 
z
" clip-path="url(#pca2b0a819b)" style="fill: #e15759"/>
   </g>
   <g id="patch_30">
    <path d="M 737.599751 527.189157 
L 808.226021 527.189157 
L 808.226021 376.950016 
L 737.599751 376.950016 
z
" clip-path="url(#pca2b0a819b)" style="fill: #e15759"/>
   </g>
   <g id="line2d_72">
    <path d="M 455.9775 311.160666 
L 824.99976 311.160666 
" clip-path="url(#pca2b0a819b)" style="fill: none; stroke-dasharray: 5.55,2.4; stroke-dashoffset: 0; stroke: #000000; stroke-width: 1.5"/>
   </g>
   <g id="patch_31">
    <path d="M 455.9775 527.189157 
L 455.9775 300.359241 
" style="fill: none; stroke: #000000; stroke-width: 0.8; stroke-linejoin: miter; stroke-linecap: square"/>
   </g>
   <g id="patch_32">
    <path d="M 824.99976 527.189157 
L 824.99976 300.359241 
" style="fill: none; stroke: #000000; stroke-width: 0.8; stroke-linejoin: miter; stroke-linecap: square"/>
   </g>
   <g id="patch_33">
    <path d="M 455.9775 527.189157 
L 824.99976 527.189157 
" style="fill: none; stroke: #000000; stroke-width: 0.8; stroke-linejoin: miter; stroke-linecap: square"/>
   </g>
   <g id="patch_34">
    <path d="M 455.9775 300.359241 
L 824.99976 300.359241 
" style="fill: none; stroke: #000000; stroke-width: 0.8; stroke-linejoin: miter; stroke-linecap: square"/>
   </g>
   <g id="text_46">
    <!-- D  Maximum invariant error -->
    <g transform="translate(557.492693 294.359241) scale(0.12 -0.12)">
     <defs>
      <path id="DejaVuSans-44" d="M 1259 4147 
L 1259 519 
L 2022 519 
Q 2988 519 3436 956 
Q 3884 1394 3884 2338 
Q 3884 3275 3436 3711 
Q 2988 4147 2022 4147 
L 1259 4147 
z
M 628 4666 
L 1925 4666 
Q 3281 4666 3915 4102 
Q 4550 3538 4550 2338 
Q 4550 1131 3912 565 
Q 3275 0 1925 0 
L 628 0 
L 628 4666 
z
" transform="scale(0.015625)"/>
      <path id="DejaVuSans-4d" d="M 628 4666 
L 1569 4666 
L 2759 1491 
L 3956 4666 
L 4897 4666 
L 4897 0 
L 4281 0 
L 4281 4097 
L 3078 897 
L 2444 897 
L 1241 4097 
L 1241 0 
L 628 0 
L 628 4666 
z
" transform="scale(0.015625)"/>
     </defs>
     <use xlink:href="#DejaVuSans-44"/>
     <use xlink:href="#DejaVuSans-20" transform="translate(77.001953 0)"/>
     <use xlink:href="#DejaVuSans-20" transform="translate(108.789062 0)"/>
     <use xlink:href="#DejaVuSans-4d" transform="translate(140.576172 0)"/>
     <use xlink:href="#DejaVuSans-61" transform="translate(226.855469 0)"/>
     <use xlink:href="#DejaVuSans-78" transform="translate(288.134766 0)"/>
     <use xlink:href="#DejaVuSans-69" transform="translate(347.314453 0)"/>
     <use xlink:href="#DejaVuSans-6d" transform="translate(375.097656 0)"/>
     <use xlink:href="#DejaVuSans-75" transform="translate(472.509766 0)"/>
     <use xlink:href="#DejaVuSans-6d" transform="translate(535.888672 0)"/>
     <use xlink:href="#DejaVuSans-20" transform="translate(633.300781 0)"/>
     <use xlink:href="#DejaVuSans-69" transform="translate(665.087891 0)"/>
     <use xlink:href="#DejaVuSans-6e" transform="translate(692.871094 0)"/>
     <use xlink:href="#DejaVuSans-76" transform="translate(756.25 0)"/>
     <use xlink:href="#DejaVuSans-61" transform="translate(815.429688 0)"/>
     <use xlink:href="#DejaVuSans-72" transform="translate(876.708984 0)"/>
     <use xlink:href="#DejaVuSans-69" transform="translate(917.822266 0)"/>
     <use xlink:href="#DejaVuSans-61" transform="translate(945.605469 0)"/>
     <use xlink:href="#DejaVuSans-6e" transform="translate(1006.884766 0)"/>
     <use xlink:href="#DejaVuSans-74" transform="translate(1070.263672 0)"/>
     <use xlink:href="#DejaVuSans-20" transform="translate(1109.472656 0)"/>
     <use xlink:href="#DejaVuSans-65" transform="translate(1141.259766 0)"/>
     <use xlink:href="#DejaVuSans-72" transform="translate(1202.783203 0)"/>
     <use xlink:href="#DejaVuSans-72" transform="translate(1242.146484 0)"/>
     <use xlink:href="#DejaVuSans-6f" transform="translate(1281.009766 0)"/>
     <use xlink:href="#DejaVuSans-72" transform="translate(1342.191406 0)"/>
    </g>
   </g>
  </g>
  <g id="text_47">
   <!-- Sparse circular relation transport V2 readiness -->
   <g transform="translate(274.250625 12.118365) scale(0.12 -0.12)">
    <defs>
     <path id="DejaVuSans-56" d="M 1831 0 
L 50 4666 
L 709 4666 
L 2188 738 
L 3669 4666 
L 4325 4666 
L 2547 0 
L 1831 0 
z
" transform="scale(0.015625)"/>
    </defs>
    <use xlink:href="#DejaVuSans-53"/>
    <use xlink:href="#DejaVuSans-70" transform="translate(63.476562 0)"/>
    <use xlink:href="#DejaVuSans-61" transform="translate(126.953125 0)"/>
    <use xlink:href="#DejaVuSans-72" transform="translate(188.232422 0)"/>
    <use xlink:href="#DejaVuSans-73" transform="translate(229.345703 0)"/>
    <use xlink:href="#DejaVuSans-65" transform="translate(281.445312 0)"/>
    <use xlink:href="#DejaVuSans-20" transform="translate(342.96875 0)"/>
    <use xlink:href="#DejaVuSans-63" transform="translate(374.755859 0)"/>
    <use xlink:href="#DejaVuSans-69" transform="translate(429.736328 0)"/>
    <use xlink:href="#DejaVuSans-72" transform="translate(457.519531 0)"/>
    <use xlink:href="#DejaVuSans-63" transform="translate(496.382812 0)"/>
    <use xlink:href="#DejaVuSans-75" transform="translate(551.363281 0)"/>
    <use xlink:href="#DejaVuSans-6c" transform="translate(614.742188 0)"/>
    <use xlink:href="#DejaVuSans-61" transform="translate(642.525391 0)"/>
    <use xlink:href="#DejaVuSans-72" transform="translate(703.804688 0)"/>
    <use xlink:href="#DejaVuSans-20" transform="translate(744.917969 0)"/>
    <use xlink:href="#DejaVuSans-72" transform="translate(776.705078 0)"/>
    <use xlink:href="#DejaVuSans-65" transform="translate(815.568359 0)"/>
    <use xlink:href="#DejaVuSans-6c" transform="translate(877.091797 0)"/>
    <use xlink:href="#DejaVuSans-61" transform="translate(904.875 0)"/>
    <use xlink:href="#DejaVuSans-74" transform="translate(966.154297 0)"/>
    <use xlink:href="#DejaVuSans-69" transform="translate(1005.363281 0)"/>
    <use xlink:href="#DejaVuSans-6f" transform="translate(1033.146484 0)"/>
    <use xlink:href="#DejaVuSans-6e" transform="translate(1094.328125 0)"/>
    <use xlink:href="#DejaVuSans-20" transform="translate(1157.707031 0)"/>
    <use xlink:href="#DejaVuSans-74" transform="translate(1189.494141 0)"/>
    <use xlink:href="#DejaVuSans-72" transform="translate(1228.703125 0)"/>
    <use xlink:href="#DejaVuSans-61" transform="translate(1269.816406 0)"/>
    <use xlink:href="#DejaVuSans-6e" transform="translate(1331.095703 0)"/>
    <use xlink:href="#DejaVuSans-73" transform="translate(1394.474609 0)"/>
    <use xlink:href="#DejaVuSans-70" transform="translate(1446.574219 0)"/>
    <use xlink:href="#DejaVuSans-6f" transform="translate(1510.050781 0)"/>
    <use xlink:href="#DejaVuSans-72" transform="translate(1571.232422 0)"/>
    <use xlink:href="#DejaVuSans-74" transform="translate(1612.345703 0)"/>
    <use xlink:href="#DejaVuSans-20" transform="translate(1651.554688 0)"/>
    <use xlink:href="#DejaVuSans-56" transform="translate(1683.341797 0)"/>
    <use xlink:href="#DejaVuSans-32" transform="translate(1751.75 0)"/>
    <use xlink:href="#DejaVuSans-20" transform="translate(1815.373047 0)"/>
    <use xlink:href="#DejaVuSans-72" transform="translate(1847.160156 0)"/>
    <use xlink:href="#DejaVuSans-65" transform="translate(1886.023438 0)"/>
    <use xlink:href="#DejaVuSans-61" transform="translate(1947.546875 0)"/>
    <use xlink:href="#DejaVuSans-64" transform="translate(2008.826172 0)"/>
    <use xlink:href="#DejaVuSans-69" transform="translate(2072.302734 0)"/>
    <use xlink:href="#DejaVuSans-6e" transform="translate(2100.085938 0)"/>
    <use xlink:href="#DejaVuSans-65" transform="translate(2163.464844 0)"/>
    <use xlink:href="#DejaVuSans-73" transform="translate(2224.988281 0)"/>
    <use xlink:href="#DejaVuSans-73" transform="translate(2277.087891 0)"/>
   </g>
  </g>
 </g>
 <defs>
  <clipPath id="p15c6a38b16">
   <rect x="48.17524" y="35.732595" width="369.02226" height="226.829916"/>
  </clipPath>
  <clipPath id="p58472bca47">
   <rect x="455.9775" y="35.732595" width="369.02226" height="226.829916"/>
  </clipPath>
  <clipPath id="p3a9c712c07">
   <rect x="48.17524" y="300.359241" width="369.02226" height="226.829916"/>
  </clipPath>
  <clipPath id="pca2b0a819b">
   <rect x="455.9775" y="300.359241" width="369.02226" height="226.829916"/>
  </clipPath>
 </defs>
</svg>
